<?xml version="1.0" encoding="utf-8"?>
<!-- Generator: Adobe Illustrator 25.3.1, SVG Export Plug-In . SVG Version: 6.00 Build 0)  -->
<svg version="1.1" id="Layer_1" xmlns="http://www.w3.org/2000/svg" xmlns:xlink="http://www.w3.org/1999/xlink" x="0px" y="0px"
	 viewBox="0 0 149 149" style="enable-background:new 0 0 149 149;" xml:space="preserve">
<style type="text/css">
	.st0{fill:#82C444;}
	.st1{fill:#0997C8;}
	.st2{fill:#FFFFFF;}
</style>
<g>
	<g>
		<g>
			<path class="st0" d="M25.6,111.6H9.9c12.9,22.4,37,37.4,64.6,37.4c10.9,0,21.2-2.4,30.5-6.6v-14.7c-9,5.2-19.4,8.2-30.5,8.2
				C54.5,135.9,36.8,126.3,25.6,111.6z M144.9,50.1h-14.1c3.2,7.5,5,15.7,5,24.4c0,16.8-6.8,32-17.7,43.1v17.2
				c18.7-13.5,30.8-35.5,30.8-60.3C149,66,147.5,57.8,144.9,50.1z"/>
		</g>
		<g>
			<path class="st1" d="M0,74.5c0,8.4,1.4,16.4,4,23.9h14c-3.1-7.4-4.8-15.4-4.8-23.9c0-18.8,8.5-35.7,21.9-46.9V11.4
				C14,24.5,0,47.9,0,74.5z M81.1,0.3C78.9,0.1,76.7,0,74.5,0c-2.2,0-4.4,0.1-6.6,0.3C61,0.9,54.4,2.5,48.1,4.8v14.3
				c8-3.8,16.9-6,26.4-6c19.8,0,37.3,9.3,48.6,23.9h15.8C127,16.7,105.8,2.5,81.1,0.3z"/>
		</g>
	</g>
	<g>
		<path class="st2" d="M91.5,37.6H35v12.1h55.8c8.4,0,15.2,6.8,15.2,15.2v2.5H52.2c-12,0-21.8,9.7-22,21.6c0,0.1,0,0.3,0,0.4v0
			c0,3.6,0.9,6.9,2.4,9.9c3.7,7.2,11.1,12.1,19.6,12.1h39.3c14.7,0,26.7-12,26.7-26.7V64.3C118.2,49.5,106.2,37.6,91.5,37.6z
			 M106.1,84.2c0,8.4-6.9,15.2-15.2,15.2H52.2c-5.5,0-9.9-4.5-9.9-9.9v0c0-5.5,4.5-9.9,9.9-9.9h53.9V84.2z"/>
	</g>
</g>
</svg>
