<?xml version="1.0" encoding="UTF-8"?>
<!-- Приточная установка (AHU) / Air Handling Unit -->
<!-- Category: fans | Tags: P&ID, ОВиК, вентиляция -->
<!-- Color param: replace #3d5a7a with state color -->
<!-- stopped=#3d5a7a running=#22d3a0 disabled=#2a3a5e alarm=#ff4454 -->
<svg viewBox="0 0 120 55" xmlns="http://www.w3.org/2000/svg">
      <rect x="5" y="10" width="110" height="35" fill="none" stroke="#3d5a7a" stroke-width="2" rx="3"/>
      <line x1="40" y1="10" x2="40" y2="45" stroke="#3d5a7a" stroke-width="1"/>
      <line x1="75" y1="10" x2="75" y2="45" stroke="#3d5a7a" stroke-width="1"/>
      <circle cx="22" cy="27" r="10" fill="none" stroke="#3d5a7a" stroke-width="1.5"/>
      <line x1="16" y1="21" x2="28" y2="33" stroke="#3d5a7a" stroke-width="1"/>
      <line x1="28" y1="21" x2="16" y2="33" stroke="#3d5a7a" stroke-width="1"/>
      <line x1="47" y1="18" x2="47" y2="36" stroke="#3d5a7a" stroke-width="0.8"/>
      <line x1="52" y1="18" x2="52" y2="36" stroke="#3d5a7a" stroke-width="0.8"/>
      <line x1="57" y1="18" x2="57" y2="36" stroke="#3d5a7a" stroke-width="0.8"/>
      <line x1="62" y1="18" x2="62" y2="36" stroke="#3d5a7a" stroke-width="0.8"/>
      <line x1="67" y1="18" x2="67" y2="36" stroke="#3d5a7a" stroke-width="0.8"/>
      <path d="M82,36 Q90,18 98,36" fill="none" stroke="#3d5a7a" stroke-width="1.5"/>
      <path d="M86,36 Q90,22 94,36" fill="none" stroke="#3d5a7a" stroke-width="1"/>
      <line x1="0" y1="27" x2="5" y2="27" stroke="#3d5a7a" stroke-width="2"/>
      <line x1="115" y1="27" x2="120" y2="27" stroke="#3d5a7a" stroke-width="2"/>
    </svg>
