<svg width="730" height="148" viewBox="0 0 730 148" fill="none" xmlns="http://www.w3.org/2000/svg">
<path fill-rule="evenodd" clip-rule="evenodd" d="M311.111 145.297H275.694V56.7549C275.694 54.3243 275.216 52.024 274.262 49.8539C273.394 47.6837 272.135 45.774 270.486 44.1247C268.836 42.4754 266.926 41.2167 264.756 40.3486C262.586 39.3938 260.286 38.9164 257.855 38.9164C255.425 38.9164 253.124 39.3938 250.954 40.3486C248.871 41.2167 247.005 42.4754 245.355 44.1247C243.793 45.774 242.534 47.6837 241.579 49.8539C240.711 52.024 240.277 54.3243 240.277 56.7549V145.297H204.73V56.7549C204.73 54.3243 204.253 52.024 203.298 49.8539C202.43 47.6837 201.171 45.774 199.522 44.1247C197.873 42.4754 195.963 41.2167 193.793 40.3486C191.623 39.3938 189.322 38.9164 186.892 38.9164C184.461 38.9164 182.161 39.3938 179.991 40.3486C177.907 41.2167 176.041 42.4754 174.392 44.1247C172.829 45.774 171.57 47.6837 170.616 49.8539C169.748 52.024 169.314 54.3243 169.314 56.7549V145.297H133.767V5.84338H142.36L151.996 16.5205C156.944 12.3538 162.369 9.14202 168.272 6.88507C174.261 4.54132 180.468 3.36945 186.892 3.36945C193.402 3.36945 199.739 4.5847 205.902 7.01526C212.152 9.44582 217.621 13.6559 222.308 19.6455C224.479 16.6941 226.952 14.1767 229.73 12.0934C232.508 10.0101 235.416 8.31735 238.454 7.01526C241.579 5.71317 244.791 4.80172 248.09 4.28088C251.388 3.67324 254.643 3.36945 257.855 3.36945C265.234 3.36945 272.135 4.75835 278.558 7.53613C285.069 10.3139 290.711 14.1333 295.486 18.9944C300.347 23.7688 304.166 29.4111 306.944 35.9216C309.722 42.432 311.111 49.3764 311.111 56.7549V145.297ZM464.288 74.3331C464.288 84.7497 462.422 94.472 458.689 103.5C454.956 112.441 449.878 120.21 443.454 126.807C437.031 133.317 429.479 138.482 420.798 142.302C412.204 146.035 402.96 147.901 393.064 147.901C383.255 147.901 374.01 146.035 365.329 142.302C356.736 138.482 349.184 133.317 342.673 126.807C336.25 120.21 331.171 112.441 327.439 103.5C323.706 94.472 321.84 84.7497 321.84 74.3331C321.84 63.7428 323.706 53.9337 327.439 44.9059C331.171 35.8782 336.25 28.1091 342.673 21.5986C349.184 15.0014 356.736 9.83647 365.329 6.10382C374.01 2.37118 383.255 0.504883 393.064 0.504883C402.96 0.504883 412.204 2.28436 420.798 5.84338C429.479 9.31561 437.031 14.307 443.454 20.8174C449.878 27.241 454.956 35.0101 458.689 44.1247C462.422 53.1525 464.288 63.2219 464.288 74.3331ZM428.48 74.3331C428.48 68.6039 427.526 63.439 425.616 58.8383C423.793 54.1508 421.276 50.1577 418.064 46.8591C414.852 43.4736 411.076 40.9129 406.736 39.1768C402.482 37.3538 397.925 36.4424 393.064 36.4424C388.203 36.4424 383.602 37.3538 379.262 39.1768C375.008 40.9129 371.276 43.4736 368.064 46.8591C364.939 50.1577 362.465 54.1508 360.642 58.8383C358.819 63.439 357.908 68.6039 357.908 74.3331C357.908 79.715 358.819 84.7064 360.642 89.3071C362.465 93.9078 364.939 97.9008 368.064 101.286C371.276 104.672 375.008 107.363 379.262 109.359C383.602 111.269 388.203 112.224 393.064 112.224C397.925 112.224 402.482 111.312 406.736 109.489C411.076 107.666 414.852 105.106 418.064 101.807C421.276 98.5085 423.793 94.5154 425.616 89.8279C427.526 85.1404 428.48 79.9754 428.48 74.3331ZM553.012 145.297H471.762V109.88H553.012C555.442 109.88 557.526 109.012 559.262 107.276C560.998 105.54 561.866 103.456 561.866 101.026C561.866 98.5085 560.998 96.8591 559.262 96.0779C557.526 95.2966 555.442 94.906 553.012 94.906H516.033C509.869 94.906 504.097 93.7341 498.715 91.3904C493.333 89.0466 488.646 85.8782 484.652 81.8851C480.659 77.8053 477.491 73.0744 475.147 67.6924C472.89 62.3105 471.762 56.5379 471.762 50.3747C471.762 44.2115 472.89 38.4389 475.147 33.0569C477.491 27.675 480.659 22.9875 484.652 18.9944C488.646 15.0014 493.333 11.8764 498.715 9.61945C504.097 7.27569 509.869 6.10382 516.033 6.10382H588.038V41.5205H516.033C513.602 41.5205 511.519 42.3886 509.783 44.1247C508.047 45.8608 507.179 47.9441 507.179 50.3747C507.179 52.8921 508.047 55.0622 509.783 56.8851C511.519 58.6212 513.602 59.4893 516.033 59.4893H553.012C559.088 59.4893 564.817 60.531 570.199 62.6143C575.581 64.6108 580.269 67.432 584.262 71.0779C588.255 74.7237 591.423 79.1074 593.767 84.2289C596.111 89.3505 597.283 94.9494 597.283 101.026C597.283 107.189 596.111 112.962 593.767 118.344C591.423 123.639 588.255 128.326 584.262 132.406C580.269 136.399 575.581 139.568 570.199 141.911C564.817 144.168 559.088 145.297 553.012 145.297ZM685.226 145.297H603.976V109.88H685.226C687.656 109.88 689.74 109.012 691.476 107.276C693.212 105.54 694.08 103.456 694.08 101.026C694.08 98.5085 693.212 96.8591 691.476 96.0779C689.74 95.2966 687.656 94.906 685.226 94.906H648.246C642.083 94.906 636.311 93.7341 630.929 91.3904C625.547 89.0466 620.859 85.8782 616.866 81.8851C612.873 77.8053 609.705 73.0744 607.361 67.6924C605.104 62.3105 603.976 56.5379 603.976 50.3747C603.976 44.2115 605.104 38.4389 607.361 33.0569C609.705 27.675 612.873 22.9875 616.866 18.9944C620.859 15.0014 625.547 11.8764 630.929 9.61945C636.311 7.27569 642.083 6.10382 648.246 6.10382H720.252V41.5205H648.246C645.816 41.5205 643.733 42.3886 641.996 44.1247C640.26 45.8608 639.392 47.9441 639.392 50.3747C639.392 52.8921 640.26 55.0622 641.996 56.8851C643.733 58.6212 645.816 59.4893 648.246 59.4893H685.226C691.302 59.4893 697.031 60.531 702.413 62.6143C707.795 64.6108 712.483 67.432 716.476 71.0779C720.469 74.7237 723.637 79.1074 725.981 84.2289C728.325 89.3505 729.497 94.9494 729.497 101.026C729.497 107.189 728.325 112.962 725.981 118.344C723.637 123.639 720.469 128.326 716.476 132.406C712.483 136.399 707.795 139.568 702.413 141.911C697.031 144.168 691.302 145.297 685.226 145.297Z" fill="white"/>
<path fill-rule="evenodd" clip-rule="evenodd" d="M0 5.69214L0.279297 85.8093C0.280797 94.0146 1.843 101.823 4.96875 109.116L4.97266 109.122L4.97461 109.128C8.07432 116.291 12.31 122.618 17.6445 128.022L17.6602 128.038L17.6777 128.055C23.0815 133.39 29.4066 137.626 36.5703 140.725L36.5762 140.729L36.582 140.731C43.879 143.858 51.6928 145.423 59.9024 145.423C68.1076 145.423 75.8876 143.86 83.1231 140.731C90.3528 137.633 96.7176 133.397 102.127 128.057L102.135 128.046L102.145 128.038C107.55 122.633 111.826 116.301 114.93 109.128L114.932 109.122L114.934 109.116C118.058 101.827 119.655 94.0107 119.625 85.7839L119.334 5.69214H84.002L84.2656 85.7957C84.2649 89.1614 83.6217 92.2373 82.332 95.1531L82.3203 95.1804L82.3086 95.2078C81.0511 98.1801 79.3414 100.724 77.1348 102.93C74.9305 105.135 72.3462 106.883 69.293 108.21C66.3721 109.442 63.2816 110.059 59.9043 110.059C56.5319 110.059 53.4033 109.442 50.4082 108.204C47.4325 106.882 44.8789 105.137 42.6719 102.93C40.4615 100.72 38.7174 98.1621 37.3945 95.1804C36.166 92.2666 35.5518 89.1754 35.543 85.7878L35.3379 5.69214H0Z" fill="white"/>
</svg>
