<svg width="730" height="149" viewBox="0 0 730 149" fill="none" xmlns="http://www.w3.org/2000/svg">
<path fill-rule="evenodd" clip-rule="evenodd" d="M311.111 145.604H275.694V57.0626C275.694 54.6321 275.216 52.3318 274.262 50.1616C273.394 47.9915 272.135 46.0817 270.486 44.4324C268.836 42.7831 266.926 41.5244 264.756 40.6564C262.586 39.7015 260.286 39.2241 257.855 39.2241C255.425 39.2241 253.124 39.7015 250.954 40.6564C248.871 41.5244 247.005 42.7831 245.355 44.4324C243.793 46.0817 242.534 47.9915 241.579 50.1616C240.711 52.3318 240.277 54.6321 240.277 57.0626V145.604H204.73V57.0626C204.73 54.6321 204.253 52.3318 203.298 50.1616C202.43 47.9915 201.171 46.0817 199.522 44.4324C197.873 42.7831 195.963 41.5244 193.793 40.6564C191.623 39.7015 189.322 39.2241 186.892 39.2241C184.461 39.2241 182.161 39.7015 179.991 40.6564C177.907 41.5244 176.041 42.7831 174.392 44.4324C172.829 46.0817 171.57 47.9915 170.616 50.1616C169.748 52.3318 169.314 54.6321 169.314 57.0626V145.604H133.767V6.15112H142.36L151.996 16.8282C156.944 12.6616 162.369 9.44976 168.272 7.19281C174.261 4.84906 180.468 3.67719 186.892 3.67719C193.402 3.67719 199.739 4.89244 205.902 7.323C212.152 9.75356 217.621 13.9637 222.308 19.9532C224.479 17.0019 226.952 14.4845 229.73 12.4011C232.508 10.3178 235.416 8.62508 238.454 7.323C241.579 6.02091 244.791 5.10946 248.09 4.58862C251.388 3.98098 254.643 3.67719 257.855 3.67719C265.234 3.67719 272.135 5.06609 278.558 7.84387C285.069 10.6217 290.711 14.4411 295.486 19.3022C300.347 24.0765 304.166 29.7189 306.944 36.2293C309.722 42.7397 311.111 49.6841 311.111 57.0626V145.604ZM464.288 74.6408C464.288 85.0575 462.422 94.7797 458.689 103.807C454.956 112.748 449.878 120.518 443.454 127.115C437.031 133.625 429.479 138.79 420.798 142.61C412.204 146.342 402.96 148.209 393.064 148.209C383.255 148.209 374.01 146.342 365.329 142.61C356.736 138.79 349.184 133.625 342.673 127.115C336.25 120.518 331.171 112.748 327.439 103.807C323.706 94.7797 321.84 85.0575 321.84 74.6408C321.84 64.0505 323.706 54.2415 327.439 45.2137C331.171 36.1859 336.25 28.4168 342.673 21.9064C349.184 15.3091 356.736 10.1442 365.329 6.41156C374.01 2.67892 383.255 0.812622 393.064 0.812622C402.96 0.812622 412.204 2.5921 420.798 6.15112C429.479 9.62335 437.031 14.6147 443.454 21.1251C449.878 27.5487 454.956 35.3178 458.689 44.4324C462.422 53.4602 464.288 63.5297 464.288 74.6408ZM428.48 74.6408C428.48 68.9116 427.526 63.7467 425.616 59.146C423.793 54.4585 421.276 50.4654 418.064 47.1668C414.852 43.7814 411.076 41.2206 406.736 39.4845C402.482 37.6616 397.925 36.7501 393.064 36.7501C388.203 36.7501 383.602 37.6616 379.262 39.4845C375.008 41.2206 371.276 43.7814 368.064 47.1668C364.939 50.4654 362.465 54.4585 360.642 59.146C358.819 63.7467 357.908 68.9116 357.908 74.6408C357.908 80.0228 358.819 85.0141 360.642 89.6148C362.465 94.2155 364.939 98.2085 368.064 101.594C371.276 104.979 375.008 107.67 379.262 109.667C383.602 111.577 388.203 112.531 393.064 112.531C397.925 112.531 402.482 111.62 406.736 109.797C411.076 107.974 414.852 105.413 418.064 102.115C421.276 98.8162 423.793 94.8231 425.616 90.1356C427.526 85.4481 428.48 80.2832 428.48 74.6408ZM553.012 145.604H471.762V110.188H553.012C555.442 110.188 557.526 109.32 559.262 107.584C560.998 105.847 561.866 103.764 561.866 101.334C561.866 98.8162 560.998 97.1669 559.262 96.3856C557.526 95.6044 555.442 95.2137 553.012 95.2137H516.033C509.869 95.2137 504.097 94.0419 498.715 91.6981C493.333 89.3544 488.646 86.1859 484.652 82.1929C480.659 78.113 477.491 73.3821 475.147 68.0002C472.89 62.6182 471.762 56.8456 471.762 50.6824C471.762 44.5192 472.89 38.7466 475.147 33.3647C477.491 27.9827 480.659 23.2952 484.652 19.3022C488.646 15.3091 493.333 12.1841 498.715 9.92719C504.097 7.58343 509.869 6.41156 516.033 6.41156H588.038V41.8282H516.033C513.602 41.8282 511.519 42.6963 509.783 44.4324C508.047 46.1685 507.179 48.2519 507.179 50.6824C507.179 53.1998 508.047 55.37 509.783 57.1929C511.519 58.929 513.602 59.7971 516.033 59.7971H553.012C559.088 59.7971 564.817 60.8387 570.199 62.9221C575.581 64.9186 580.269 67.7398 584.262 71.3856C588.255 75.0315 591.423 79.4151 593.767 84.5367C596.111 89.6582 597.283 95.2572 597.283 101.334C597.283 107.497 596.111 113.269 593.767 118.651C591.423 123.946 588.255 128.634 584.262 132.714C580.269 136.707 575.581 139.875 570.199 142.219C564.817 144.476 559.088 145.604 553.012 145.604ZM685.226 145.604H603.976V110.188H685.226C687.656 110.188 689.74 109.32 691.476 107.584C693.212 105.847 694.08 103.764 694.08 101.334C694.08 98.8162 693.212 97.1669 691.476 96.3856C689.74 95.6044 687.656 95.2137 685.226 95.2137H648.246C642.083 95.2137 636.311 94.0419 630.929 91.6981C625.547 89.3544 620.859 86.1859 616.866 82.1929C612.873 78.113 609.705 73.3821 607.361 68.0002C605.104 62.6182 603.976 56.8456 603.976 50.6824C603.976 44.5192 605.104 38.7466 607.361 33.3647C609.705 27.9827 612.873 23.2952 616.866 19.3022C620.859 15.3091 625.547 12.1841 630.929 9.92719C636.311 7.58343 642.083 6.41156 648.246 6.41156H720.252V41.8282H648.246C645.816 41.8282 643.733 42.6963 641.996 44.4324C640.26 46.1685 639.392 48.2519 639.392 50.6824C639.392 53.1998 640.26 55.37 641.996 57.1929C643.733 58.929 645.816 59.7971 648.246 59.7971H685.226C691.302 59.7971 697.031 60.8387 702.413 62.9221C707.795 64.9186 712.483 67.7398 716.476 71.3856C720.469 75.0315 723.637 79.4151 725.981 84.5367C728.325 89.6582 729.497 95.2572 729.497 101.334C729.497 107.497 728.325 113.269 725.981 118.651C723.637 123.946 720.469 128.634 716.476 132.714C712.483 136.707 707.795 139.875 702.413 142.219C697.031 144.476 691.302 145.604 685.226 145.604Z" fill="black"/>
<path fill-rule="evenodd" clip-rule="evenodd" d="M0 6L0.279297 86.1172C0.280797 94.3224 1.843 102.13 4.96875 109.424L4.97266 109.43L4.97461 109.436C8.07432 116.599 12.31 122.926 17.6445 128.33L17.6602 128.346L17.6777 128.363C23.0815 133.698 29.4066 137.934 36.5703 141.033L36.5762 141.037L36.582 141.039C43.879 144.166 51.6928 145.73 59.9024 145.73C68.1076 145.73 75.8876 144.168 83.1231 141.039C90.3528 137.941 96.7176 133.705 102.127 128.365L102.135 128.354L102.145 128.346C107.55 122.941 111.826 116.608 114.93 109.436L114.932 109.43L114.934 109.424C118.058 102.135 119.655 94.3185 119.625 86.0918L119.334 6H84.002L84.2656 86.1035C84.2649 89.4693 83.6217 92.5452 82.332 95.4609L82.3203 95.4883L82.3086 95.5156C81.0511 98.4879 79.3414 101.032 77.1348 103.238C74.9305 105.443 72.3462 107.191 69.293 108.518C66.3721 109.75 63.2816 110.367 59.9043 110.367C56.5319 110.367 53.4033 109.75 50.4082 108.512C47.4325 107.19 44.8789 105.445 42.6719 103.238C40.4615 101.028 38.7174 98.47 37.3945 95.4883C36.166 92.5745 35.5518 89.4833 35.543 86.0957L35.3379 6H0Z" fill="black"/>
</svg>
