<svg width="730" height="276" viewBox="0 0 730 276" fill="none" xmlns="http://www.w3.org/2000/svg">
<path fill-rule="evenodd" clip-rule="evenodd" d="M311.111 145.681H275.694V57.1392C275.694 54.7086 275.216 52.4083 274.262 50.2382C273.394 48.068 272.135 46.1583 270.486 44.509C268.836 42.8597 266.926 41.601 264.756 40.7329C262.586 39.7781 260.286 39.3007 257.855 39.3007C255.425 39.3007 253.124 39.7781 250.954 40.7329C248.871 41.601 247.005 42.8597 245.355 44.509C243.793 46.1583 242.534 48.068 241.579 50.2382C240.711 52.4083 240.277 54.7086 240.277 57.1392V145.681H204.73V57.1392C204.73 54.7086 204.253 52.4083 203.298 50.2382C202.43 48.068 201.171 46.1583 199.522 44.509C197.873 42.8597 195.963 41.601 193.793 40.7329C191.623 39.7781 189.322 39.3007 186.892 39.3007C184.461 39.3007 182.161 39.7781 179.991 40.7329C177.907 41.601 176.041 42.8597 174.392 44.509C172.829 46.1583 171.57 48.068 170.616 50.2382C169.748 52.4083 169.314 54.7086 169.314 57.1392V145.681H133.767V6.22766H142.36L151.996 16.9048C156.944 12.7381 162.369 9.52629 168.272 7.26935C174.261 4.92559 180.468 3.75372 186.892 3.75372C193.402 3.75372 199.739 4.96898 205.902 7.39954C212.152 9.8301 217.621 14.0402 222.308 20.0298C224.479 17.0784 226.952 14.561 229.73 12.4777C232.508 10.3943 235.416 8.70162 238.454 7.39954C241.579 6.09745 244.791 5.18599 248.09 4.66516C251.388 4.05752 254.643 3.75372 257.855 3.75372C265.234 3.75372 272.135 5.14263 278.558 7.92041C285.069 10.6982 290.711 14.5176 295.486 19.3787C300.347 24.153 304.166 29.7954 306.944 36.3058C309.722 42.8163 311.111 49.7607 311.111 57.1392V145.681ZM464.288 74.7173C464.288 85.134 462.422 94.8562 458.689 103.884C454.956 112.825 449.878 120.594 443.454 127.191C437.031 133.702 429.479 138.867 420.798 142.686C412.204 146.419 402.96 148.285 393.064 148.285C383.255 148.285 374.01 146.419 365.329 142.686C356.736 138.867 349.184 133.702 342.673 127.191C336.25 120.594 331.171 112.825 327.439 103.884C323.706 94.8562 321.84 85.134 321.84 74.7173C321.84 64.1271 323.706 54.318 327.439 45.2902C331.171 36.2624 336.25 28.4933 342.673 21.9829C349.184 15.3857 356.736 10.2207 365.329 6.4881C374.01 2.75546 383.255 0.88916 393.064 0.88916C402.96 0.88916 412.204 2.66863 420.798 6.22766C429.479 9.69989 437.031 14.6912 443.454 21.2017C449.878 27.6253 454.956 35.3944 458.689 44.509C462.422 53.5368 464.288 63.6062 464.288 74.7173ZM428.48 74.7173C428.48 68.9882 427.526 63.8232 425.616 59.2225C423.793 54.535 421.276 50.542 418.064 47.2433C414.852 43.8579 411.076 41.2971 406.736 39.561C402.482 37.7381 397.925 36.8267 393.064 36.8267C388.203 36.8267 383.602 37.7381 379.262 39.561C375.008 41.2971 371.276 43.8579 368.064 47.2433C364.939 50.542 362.465 54.535 360.642 59.2225C358.819 63.8232 357.908 68.9882 357.908 74.7173C357.908 80.0993 358.819 85.0906 360.642 89.6913C362.465 94.292 364.939 98.2851 368.064 101.67C371.276 105.056 375.008 107.747 379.262 109.743C383.602 111.653 388.203 112.608 393.064 112.608C397.925 112.608 402.482 111.697 406.736 109.874C411.076 108.051 414.852 105.49 418.064 102.191C421.276 98.8927 423.793 94.8997 425.616 90.2122C427.526 85.5247 428.48 80.3597 428.48 74.7173ZM553.012 145.681H471.762V110.264H553.012C555.442 110.264 557.526 109.396 559.262 107.66C560.998 105.924 561.866 103.841 561.866 101.41C561.866 98.8927 560.998 97.2434 559.262 96.4622C557.526 95.6809 555.442 95.2903 553.012 95.2903H516.033C509.869 95.2903 504.097 94.1184 498.715 91.7747C493.333 89.4309 488.646 86.2625 484.652 82.2694C480.659 78.1895 477.491 73.4587 475.147 68.0767C472.89 62.6948 471.762 56.9222 471.762 50.759C471.762 44.5958 472.89 38.8232 475.147 33.4412C477.491 28.0593 480.659 23.3718 484.652 19.3787C488.646 15.3857 493.333 12.2607 498.715 10.0037C504.097 7.65997 509.869 6.4881 516.033 6.4881H588.038V41.9048H516.033C513.602 41.9048 511.519 42.7729 509.783 44.509C508.047 46.2451 507.179 48.3284 507.179 50.759C507.179 53.2763 508.047 55.4465 509.783 57.2694C511.519 59.0055 513.602 59.8736 516.033 59.8736H553.012C559.088 59.8736 564.817 60.9153 570.199 62.9986C575.581 64.9951 580.269 67.8163 584.262 71.4622C588.255 75.108 591.423 79.4917 593.767 84.6132C596.111 89.7348 597.283 95.3337 597.283 101.41C597.283 107.573 596.111 113.346 593.767 118.728C591.423 124.023 588.255 128.71 584.262 132.79C580.269 136.783 575.581 139.952 570.199 142.296C564.817 144.552 559.088 145.681 553.012 145.681ZM685.226 145.681H603.976V110.264H685.226C687.656 110.264 689.74 109.396 691.476 107.66C693.212 105.924 694.08 103.841 694.08 101.41C694.08 98.8927 693.212 97.2434 691.476 96.4622C689.74 95.6809 687.656 95.2903 685.226 95.2903H648.246C642.083 95.2903 636.311 94.1184 630.929 91.7747C625.547 89.4309 620.859 86.2625 616.866 82.2694C612.873 78.1895 609.705 73.4587 607.361 68.0767C605.104 62.6948 603.976 56.9222 603.976 50.759C603.976 44.5958 605.104 38.8232 607.361 33.4412C609.705 28.0593 612.873 23.3718 616.866 19.3787C620.859 15.3857 625.547 12.2607 630.929 10.0037C636.311 7.65997 642.083 6.4881 648.246 6.4881H720.252V41.9048H648.246C645.816 41.9048 643.733 42.7729 641.996 44.509C640.26 46.2451 639.392 48.3284 639.392 50.759C639.392 53.2763 640.26 55.4465 641.996 57.2694C643.733 59.0055 645.816 59.8736 648.246 59.8736H685.226C691.302 59.8736 697.031 60.9153 702.413 62.9986C707.795 64.9951 712.483 67.8163 716.476 71.4622C720.469 75.108 723.637 79.4917 725.981 84.6132C728.325 89.7348 729.497 95.3337 729.497 101.41C729.497 107.573 728.325 113.346 725.981 118.728C723.637 124.023 720.469 128.71 716.476 132.79C712.483 136.783 707.795 139.952 702.413 142.296C697.031 144.552 691.302 145.681 685.226 145.681Z" fill="black"/>
<path fill-rule="evenodd" clip-rule="evenodd" d="M0 6.07642L0.279297 86.1936C0.280797 94.3989 1.843 102.207 4.96875 109.5L4.97266 109.506L4.97461 109.512C8.07432 116.676 12.31 123.003 17.6445 128.406L17.6602 128.422L17.6777 128.44C23.0815 133.774 29.4066 138.01 36.5703 141.11L36.5762 141.114L36.582 141.115C43.879 144.243 51.6928 145.807 59.9024 145.807C68.1076 145.807 75.8876 144.244 83.1231 141.115C90.3528 138.017 96.7176 133.782 102.127 128.442L102.135 128.43L102.145 128.422C107.55 123.017 111.826 116.685 114.93 109.512L114.932 109.506L114.934 109.5C118.058 102.211 119.655 94.3949 119.625 86.1682L119.334 6.07642H84.002L84.2656 86.1799C84.2649 89.5457 83.6217 92.6216 82.332 95.5374L82.3203 95.5647L82.3086 95.592C81.0511 98.5644 79.3414 101.108 77.1348 103.315C74.9305 105.519 72.3462 107.268 69.293 108.594C66.3721 109.826 63.2816 110.444 59.9043 110.444C56.5319 110.444 53.4033 109.826 50.4082 108.588C47.4325 107.266 44.8789 105.522 42.6719 103.315C40.4615 101.104 38.7174 98.5464 37.3945 95.5647C36.166 92.6509 35.5518 89.5597 35.543 86.1721L35.3379 6.07642H0Z" fill="black"/>
<path d="M159.792 213H139.044V175.872H159.792V179.98H143.724V191.576H158.856V195.632H143.724V208.892H159.792V213Z" fill="black"/>
<path d="M180.73 184.608C184.058 184.608 186.572 185.423 188.27 187.052C189.969 188.647 190.818 191.247 190.818 194.852V213H186.294V195.164C186.294 192.911 185.792 191.229 184.786 190.12C183.781 189.011 182.204 188.456 180.054 188.456C176.969 188.456 174.837 189.323 173.658 191.056C172.48 192.789 171.89 195.285 171.89 198.544V213H167.314V185.128H171.006L171.682 188.924H171.942C172.566 187.953 173.329 187.156 174.23 186.532C175.166 185.873 176.189 185.388 177.298 185.076C178.408 184.764 179.552 184.608 180.73 184.608Z" fill="black"/>
<path d="M209.339 184.608C211.176 184.608 212.823 184.955 214.279 185.648C215.77 186.341 217.035 187.399 218.075 188.82H218.335L218.959 185.128H222.599V213.468C222.599 216.103 222.148 218.304 221.247 220.072C220.346 221.875 218.976 223.227 217.139 224.128C215.302 225.029 212.962 225.48 210.119 225.48C208.108 225.48 206.254 225.324 204.555 225.012C202.891 224.735 201.4 224.301 200.083 223.712V219.5C200.984 219.951 201.972 220.332 203.047 220.644C204.122 220.991 205.283 221.251 206.531 221.424C207.779 221.597 209.062 221.684 210.379 221.684C212.771 221.684 214.643 220.973 215.995 219.552C217.382 218.165 218.075 216.259 218.075 213.832V212.74C218.075 212.324 218.092 211.735 218.127 210.972C218.162 210.175 218.196 209.62 218.231 209.308H218.023C217.052 210.729 215.839 211.787 214.383 212.48C212.962 213.173 211.298 213.52 209.391 213.52C205.786 213.52 202.96 212.255 200.915 209.724C198.904 207.193 197.899 203.657 197.899 199.116C197.899 196.135 198.35 193.569 199.251 191.42C200.187 189.236 201.504 187.555 203.203 186.376C204.902 185.197 206.947 184.608 209.339 184.608ZM209.963 188.456C208.403 188.456 207.068 188.872 205.959 189.704C204.884 190.536 204.052 191.749 203.463 193.344C202.908 194.939 202.631 196.88 202.631 199.168C202.631 202.6 203.255 205.235 204.503 207.072C205.786 208.875 207.64 209.776 210.067 209.776C211.488 209.776 212.702 209.603 213.707 209.256C214.712 208.875 215.544 208.303 216.203 207.54C216.862 206.743 217.347 205.737 217.659 204.524C217.971 203.311 218.127 201.872 218.127 200.208V199.116C218.127 196.585 217.832 194.54 217.243 192.98C216.688 191.42 215.804 190.276 214.591 189.548C213.378 188.82 211.835 188.456 209.963 188.456Z" fill="black"/>
<path d="M236.027 185.128V213H231.451V185.128H236.027ZM233.791 174.676C234.485 174.676 235.091 174.919 235.611 175.404C236.166 175.855 236.443 176.583 236.443 177.588C236.443 178.559 236.166 179.287 235.611 179.772C235.091 180.257 234.485 180.5 233.791 180.5C233.029 180.5 232.387 180.257 231.867 179.772C231.347 179.287 231.087 178.559 231.087 177.588C231.087 176.583 231.347 175.855 231.867 175.404C232.387 174.919 233.029 174.676 233.791 174.676Z" fill="black"/>
<path d="M258.273 184.608C261.601 184.608 264.115 185.423 265.813 187.052C267.512 188.647 268.361 191.247 268.361 194.852V213H263.837V195.164C263.837 192.911 263.335 191.229 262.329 190.12C261.324 189.011 259.747 188.456 257.597 188.456C254.512 188.456 252.38 189.323 251.201 191.056C250.023 192.789 249.433 195.285 249.433 198.544V213H244.857V185.128H248.549L249.225 188.924H249.485C250.109 187.953 250.872 187.156 251.773 186.532C252.709 185.873 253.732 185.388 254.841 185.076C255.951 184.764 257.095 184.608 258.273 184.608Z" fill="black"/>
<path d="M287.766 184.608C290.158 184.608 292.203 185.128 293.902 186.168C295.635 187.208 296.953 188.681 297.854 190.588C298.79 192.46 299.258 194.661 299.258 197.192V199.948H280.174C280.243 203.103 281.041 205.512 282.566 207.176C284.126 208.805 286.293 209.62 289.066 209.62C290.834 209.62 292.394 209.464 293.746 209.152C295.133 208.805 296.554 208.32 298.01 207.696V211.7C296.589 212.324 295.185 212.775 293.798 213.052C292.411 213.364 290.765 213.52 288.858 213.52C286.223 213.52 283.883 212.983 281.838 211.908C279.827 210.833 278.25 209.239 277.106 207.124C275.997 204.975 275.442 202.357 275.442 199.272C275.442 196.221 275.945 193.604 276.95 191.42C277.99 189.236 279.429 187.555 281.266 186.376C283.138 185.197 285.305 184.608 287.766 184.608ZM287.714 188.352C285.53 188.352 283.797 189.063 282.514 190.484C281.266 191.871 280.521 193.812 280.278 196.308H294.474C294.474 194.713 294.231 193.327 293.746 192.148C293.261 190.969 292.515 190.051 291.51 189.392C290.539 188.699 289.274 188.352 287.714 188.352Z" fill="black"/>
<path d="M317.118 184.608C319.51 184.608 321.555 185.128 323.254 186.168C324.987 187.208 326.304 188.681 327.206 190.588C328.142 192.46 328.61 194.661 328.61 197.192V199.948H309.526C309.595 203.103 310.392 205.512 311.918 207.176C313.478 208.805 315.644 209.62 318.418 209.62C320.186 209.62 321.746 209.464 323.098 209.152C324.484 208.805 325.906 208.32 327.362 207.696V211.7C325.94 212.324 324.536 212.775 323.15 213.052C321.763 213.364 320.116 213.52 318.21 213.52C315.575 213.52 313.235 212.983 311.19 211.908C309.179 210.833 307.602 209.239 306.458 207.124C305.348 204.975 304.794 202.357 304.794 199.272C304.794 196.221 305.296 193.604 306.302 191.42C307.342 189.236 308.78 187.555 310.618 186.376C312.49 185.197 314.656 184.608 317.118 184.608ZM317.066 188.352C314.882 188.352 313.148 189.063 311.866 190.484C310.618 191.871 309.872 193.812 309.63 196.308H323.826C323.826 194.713 323.583 193.327 323.098 192.148C322.612 190.969 321.867 190.051 320.862 189.392C319.891 188.699 318.626 188.352 317.066 188.352Z" fill="black"/>
<path d="M348.705 184.608C349.225 184.608 349.78 184.643 350.369 184.712C350.993 184.747 351.53 184.816 351.981 184.92L351.409 189.132C350.958 189.028 350.456 188.941 349.901 188.872C349.381 188.803 348.878 188.768 348.393 188.768C347.318 188.768 346.296 188.993 345.325 189.444C344.354 189.895 343.488 190.536 342.725 191.368C341.962 192.165 341.356 193.136 340.905 194.28C340.489 195.424 340.281 196.707 340.281 198.128V213H335.705V185.128H339.449L339.969 190.224H340.177C340.766 189.184 341.477 188.248 342.309 187.416C343.141 186.549 344.094 185.873 345.169 185.388C346.244 184.868 347.422 184.608 348.705 184.608Z" fill="black"/>
<path d="M361.762 185.128V213H357.186V185.128H361.762ZM359.526 174.676C360.219 174.676 360.826 174.919 361.346 175.404C361.9 175.855 362.178 176.583 362.178 177.588C362.178 178.559 361.9 179.287 361.346 179.772C360.826 180.257 360.219 180.5 359.526 180.5C358.763 180.5 358.122 180.257 357.602 179.772C357.082 179.287 356.822 178.559 356.822 177.588C356.822 176.583 357.082 175.855 357.602 175.404C358.122 174.919 358.763 174.676 359.526 174.676Z" fill="black"/>
<path d="M384.008 184.608C387.336 184.608 389.849 185.423 391.548 187.052C393.246 188.647 394.096 191.247 394.096 194.852V213H389.572V195.164C389.572 192.911 389.069 191.229 388.064 190.12C387.058 189.011 385.481 188.456 383.332 188.456C380.246 188.456 378.114 189.323 376.936 191.056C375.757 192.789 375.168 195.285 375.168 198.544V213H370.592V185.128H374.284L374.96 188.924H375.22C375.844 187.953 376.606 187.156 377.508 186.532C378.444 185.873 379.466 185.388 380.576 185.076C381.685 184.764 382.829 184.608 384.008 184.608Z" fill="black"/>
<path d="M412.616 184.608C414.454 184.608 416.1 184.955 417.556 185.648C419.047 186.341 420.312 187.399 421.352 188.82H421.612L422.236 185.128H425.876V213.468C425.876 216.103 425.426 218.304 424.524 220.072C423.623 221.875 422.254 223.227 420.416 224.128C418.579 225.029 416.239 225.48 413.396 225.48C411.386 225.48 409.531 225.324 407.832 225.012C406.168 224.735 404.678 224.301 403.36 223.712V219.5C404.262 219.951 405.25 220.332 406.324 220.644C407.399 220.991 408.56 221.251 409.808 221.424C411.056 221.597 412.339 221.684 413.656 221.684C416.048 221.684 417.92 220.973 419.272 219.552C420.659 218.165 421.352 216.259 421.352 213.832V212.74C421.352 212.324 421.37 211.735 421.404 210.972C421.439 210.175 421.474 209.62 421.508 209.308H421.3C420.33 210.729 419.116 211.787 417.66 212.48C416.239 213.173 414.575 213.52 412.668 213.52C409.063 213.52 406.238 212.255 404.192 209.724C402.182 207.193 401.176 203.657 401.176 199.116C401.176 196.135 401.627 193.569 402.528 191.42C403.464 189.236 404.782 187.555 406.48 186.376C408.179 185.197 410.224 184.608 412.616 184.608ZM413.24 188.456C411.68 188.456 410.346 188.872 409.236 189.704C408.162 190.536 407.33 191.749 406.74 193.344C406.186 194.939 405.908 196.88 405.908 199.168C405.908 202.6 406.532 205.235 407.78 207.072C409.063 208.875 410.918 209.776 413.344 209.776C414.766 209.776 415.979 209.603 416.984 209.256C417.99 208.875 418.822 208.303 419.48 207.54C420.139 206.743 420.624 205.737 420.936 204.524C421.248 203.311 421.404 201.872 421.404 200.208V199.116C421.404 196.585 421.11 194.54 420.52 192.98C419.966 191.42 419.082 190.276 417.868 189.548C416.655 188.82 415.112 188.456 413.24 188.456Z" fill="black"/>
<path d="M466.384 205.304C466.384 207.107 465.934 208.615 465.032 209.828C464.131 211.041 462.848 211.96 461.184 212.584C459.52 213.208 457.544 213.52 455.256 213.52C453.315 213.52 451.634 213.364 450.212 213.052C448.826 212.74 447.595 212.307 446.52 211.752V207.592C447.63 208.147 448.964 208.667 450.524 209.152C452.119 209.603 453.731 209.828 455.36 209.828C457.683 209.828 459.364 209.464 460.404 208.736C461.444 207.973 461.964 206.968 461.964 205.72C461.964 205.027 461.774 204.403 461.392 203.848C461.011 203.293 460.318 202.739 459.312 202.184C458.342 201.629 456.938 201.005 455.1 200.312C453.298 199.619 451.755 198.925 450.472 198.232C449.19 197.539 448.202 196.707 447.508 195.736C446.815 194.765 446.468 193.517 446.468 191.992C446.468 189.635 447.422 187.815 449.328 186.532C451.27 185.249 453.8 184.608 456.92 184.608C458.619 184.608 460.196 184.781 461.652 185.128C463.143 185.44 464.53 185.891 465.812 186.48L464.252 190.12C463.49 189.773 462.675 189.479 461.808 189.236C460.976 188.959 460.127 188.751 459.26 188.612C458.394 188.439 457.51 188.352 456.608 188.352C454.736 188.352 453.298 188.664 452.292 189.288C451.322 189.877 450.836 190.692 450.836 191.732C450.836 192.495 451.062 193.153 451.512 193.708C451.963 194.228 452.708 194.748 453.748 195.268C454.823 195.753 456.244 196.343 458.012 197.036C459.78 197.695 461.288 198.371 462.536 199.064C463.784 199.757 464.738 200.607 465.396 201.612C466.055 202.583 466.384 203.813 466.384 205.304Z" fill="black"/>
<path d="M497.351 199.012C497.351 201.335 497.039 203.397 496.415 205.2C495.826 206.968 494.959 208.476 493.815 209.724C492.706 210.972 491.336 211.925 489.707 212.584C488.112 213.208 486.327 213.52 484.351 213.52C482.514 213.52 480.815 213.208 479.255 212.584C477.695 211.925 476.343 210.972 475.199 209.724C474.055 208.476 473.154 206.968 472.495 205.2C471.871 203.397 471.559 201.335 471.559 199.012C471.559 195.927 472.079 193.327 473.119 191.212C474.159 189.063 475.65 187.433 477.591 186.324C479.532 185.18 481.838 184.608 484.507 184.608C487.038 184.608 489.257 185.18 491.163 186.324C493.105 187.433 494.612 189.063 495.687 191.212C496.796 193.327 497.351 195.927 497.351 199.012ZM476.291 199.012C476.291 201.196 476.569 203.103 477.123 204.732C477.713 206.327 478.614 207.557 479.827 208.424C481.041 209.291 482.583 209.724 484.455 209.724C486.327 209.724 487.87 209.291 489.083 208.424C490.296 207.557 491.181 206.327 491.735 204.732C492.325 203.103 492.619 201.196 492.619 199.012C492.619 196.793 492.325 194.904 491.735 193.344C491.146 191.784 490.244 190.588 489.031 189.756C487.852 188.889 486.31 188.456 484.403 188.456C481.561 188.456 479.498 189.392 478.215 191.264C476.933 193.136 476.291 195.719 476.291 199.012Z" fill="black"/>
<path d="M509.18 213H504.604V173.48H509.18V213Z" fill="black"/>
<path d="M541.306 185.128V213H537.562L536.886 209.308H536.678C536.088 210.279 535.326 211.076 534.39 211.7C533.454 212.324 532.431 212.775 531.322 213.052C530.212 213.364 529.051 213.52 527.838 213.52C525.619 213.52 523.747 213.173 522.222 212.48C520.731 211.752 519.604 210.643 518.842 209.152C518.079 207.661 517.698 205.737 517.698 203.38V185.128H522.326V203.068C522.326 205.287 522.828 206.951 523.834 208.06C524.839 209.169 526.399 209.724 528.514 209.724C530.594 209.724 532.223 209.343 533.402 208.58C534.615 207.783 535.464 206.639 535.95 205.148C536.47 203.623 536.73 201.785 536.73 199.636V185.128H541.306Z" fill="black"/>
<path d="M559.462 209.776C560.156 209.776 560.866 209.724 561.594 209.62C562.322 209.481 562.912 209.343 563.362 209.204V212.688C562.877 212.931 562.184 213.121 561.282 213.26C560.381 213.433 559.514 213.52 558.682 213.52C557.226 213.52 555.874 213.277 554.626 212.792C553.413 212.272 552.425 211.388 551.662 210.14C550.9 208.892 550.518 207.141 550.518 204.888V188.664H546.566V186.48L550.57 184.66L552.39 178.732H555.094V185.128H563.154V188.664H555.094V204.784C555.094 206.483 555.493 207.748 556.29 208.58C557.122 209.377 558.18 209.776 559.462 209.776Z" fill="black"/>
<path d="M573.519 185.128V213H568.943V185.128H573.519ZM571.283 174.676C571.977 174.676 572.583 174.919 573.103 175.404C573.658 175.855 573.935 176.583 573.935 177.588C573.935 178.559 573.658 179.287 573.103 179.772C572.583 180.257 571.977 180.5 571.283 180.5C570.521 180.5 569.879 180.257 569.359 179.772C568.839 179.287 568.579 178.559 568.579 177.588C568.579 176.583 568.839 175.855 569.359 175.404C569.879 174.919 570.521 174.676 571.283 174.676Z" fill="black"/>
<path d="M606.582 199.012C606.582 201.335 606.27 203.397 605.646 205.2C605.056 206.968 604.19 208.476 603.046 209.724C601.936 210.972 600.567 211.925 598.938 212.584C597.343 213.208 595.558 213.52 593.582 213.52C591.744 213.52 590.046 213.208 588.486 212.584C586.926 211.925 585.574 210.972 584.43 209.724C583.286 208.476 582.384 206.968 581.726 205.2C581.102 203.397 580.79 201.335 580.79 199.012C580.79 195.927 581.31 193.327 582.35 191.212C583.39 189.063 584.88 187.433 586.822 186.324C588.763 185.18 591.068 184.608 593.738 184.608C596.268 184.608 598.487 185.18 600.394 186.324C602.335 187.433 603.843 189.063 604.918 191.212C606.027 193.327 606.582 195.927 606.582 199.012ZM585.522 199.012C585.522 201.196 585.799 203.103 586.354 204.732C586.943 206.327 587.844 207.557 589.058 208.424C590.271 209.291 591.814 209.724 593.686 209.724C595.558 209.724 597.1 209.291 598.314 208.424C599.527 207.557 600.411 206.327 600.966 204.732C601.555 203.103 601.85 201.196 601.85 199.012C601.85 196.793 601.555 194.904 600.966 193.344C600.376 191.784 599.475 190.588 598.262 189.756C597.083 188.889 595.54 188.456 593.634 188.456C590.791 188.456 588.728 189.392 587.446 191.264C586.163 193.136 585.522 195.719 585.522 199.012Z" fill="black"/>
<path d="M627.25 184.608C630.578 184.608 633.091 185.423 634.79 187.052C636.489 188.647 637.338 191.247 637.338 194.852V213H632.814V195.164C632.814 192.911 632.311 191.229 631.306 190.12C630.301 189.011 628.723 188.456 626.574 188.456C623.489 188.456 621.357 189.323 620.178 191.056C618.999 192.789 618.41 195.285 618.41 198.544V213H613.834V185.128H617.526L618.202 188.924H618.462C619.086 187.953 619.849 187.156 620.75 186.532C621.686 185.873 622.709 185.388 623.818 185.076C624.927 184.764 626.071 184.608 627.25 184.608Z" fill="black"/>
<path d="M664.127 205.304C664.127 207.107 663.676 208.615 662.775 209.828C661.873 211.041 660.591 211.96 658.927 212.584C657.263 213.208 655.287 213.52 652.999 213.52C651.057 213.52 649.376 213.364 647.955 213.052C646.568 212.74 645.337 212.307 644.263 211.752V207.592C645.372 208.147 646.707 208.667 648.267 209.152C649.861 209.603 651.473 209.828 653.103 209.828C655.425 209.828 657.107 209.464 658.147 208.736C659.187 207.973 659.707 206.968 659.707 205.72C659.707 205.027 659.516 204.403 659.135 203.848C658.753 203.293 658.06 202.739 657.055 202.184C656.084 201.629 654.68 201.005 652.843 200.312C651.04 199.619 649.497 198.925 648.215 198.232C646.932 197.539 645.944 196.707 645.251 195.736C644.557 194.765 644.211 193.517 644.211 191.992C644.211 189.635 645.164 187.815 647.071 186.532C649.012 185.249 651.543 184.608 654.663 184.608C656.361 184.608 657.939 184.781 659.395 185.128C660.885 185.44 662.272 185.891 663.555 186.48L661.995 190.12C661.232 189.773 660.417 189.479 659.551 189.236C658.719 188.959 657.869 188.751 657.003 188.612C656.136 188.439 655.252 188.352 654.351 188.352C652.479 188.352 651.04 188.664 650.035 189.288C649.064 189.877 648.579 190.692 648.579 191.732C648.579 192.495 648.804 193.153 649.255 193.708C649.705 194.228 650.451 194.748 651.491 195.268C652.565 195.753 653.987 196.343 655.755 197.036C657.523 197.695 659.031 198.371 660.279 199.064C661.527 199.757 662.48 200.607 663.139 201.612C663.797 202.583 664.127 203.813 664.127 205.304Z" fill="black"/>
<path d="M149.288 222.872C152.373 222.872 154.904 223.271 156.88 224.068C158.891 224.831 160.381 225.992 161.352 227.552C162.323 229.112 162.808 231.071 162.808 233.428C162.808 235.404 162.444 237.051 161.716 238.368C160.988 239.685 160.052 240.743 158.908 241.54C157.799 242.303 156.62 242.909 155.372 243.36L165.564 260H160.104L151.108 244.66H143.724V260H139.044V222.872H149.288ZM149.028 226.928H143.724V240.708H149.288C151.299 240.708 152.945 240.448 154.228 239.928C155.511 239.373 156.447 238.576 157.036 237.536C157.66 236.496 157.972 235.196 157.972 233.636C157.972 232.007 157.643 230.707 156.984 229.736C156.36 228.765 155.389 228.055 154.072 227.604C152.755 227.153 151.073 226.928 149.028 226.928Z" fill="black"/>
<path d="M181.532 231.608C183.924 231.608 185.969 232.128 187.668 233.168C189.401 234.208 190.718 235.681 191.62 237.588C192.556 239.46 193.024 241.661 193.024 244.192V246.948H173.94C174.009 250.103 174.806 252.512 176.332 254.176C177.892 255.805 180.058 256.62 182.832 256.62C184.6 256.62 186.16 256.464 187.512 256.152C188.898 255.805 190.32 255.32 191.776 254.696V258.7C190.354 259.324 188.95 259.775 187.564 260.052C186.177 260.364 184.53 260.52 182.624 260.52C179.989 260.52 177.649 259.983 175.604 258.908C173.593 257.833 172.016 256.239 170.872 254.124C169.762 251.975 169.208 249.357 169.208 246.272C169.208 243.221 169.71 240.604 170.716 238.42C171.756 236.236 173.194 234.555 175.032 233.376C176.904 232.197 179.07 231.608 181.532 231.608ZM181.48 235.352C179.296 235.352 177.562 236.063 176.28 237.484C175.032 238.871 174.286 240.812 174.044 243.308H188.24C188.24 241.713 187.997 240.327 187.512 239.148C187.026 237.969 186.281 237.051 185.276 236.392C184.305 235.699 183.04 235.352 181.48 235.352Z" fill="black"/>
<path d="M204.695 260H200.119V220.48H204.695V260Z" fill="black"/>
<path d="M218.101 232.128V260H213.525V232.128H218.101ZM215.865 221.676C216.559 221.676 217.165 221.919 217.685 222.404C218.24 222.855 218.517 223.583 218.517 224.588C218.517 225.559 218.24 226.287 217.685 226.772C217.165 227.257 216.559 227.5 215.865 227.5C215.103 227.5 214.461 227.257 213.941 226.772C213.421 226.287 213.161 225.559 213.161 224.588C213.161 223.583 213.421 222.855 213.941 222.404C214.461 221.919 215.103 221.676 215.865 221.676Z" fill="black"/>
<path d="M237.488 231.66C240.885 231.66 243.398 232.405 245.028 233.896C246.657 235.387 247.472 237.761 247.472 241.02V260H244.144L243.26 256.048H243.052C242.254 257.053 241.422 257.903 240.556 258.596C239.724 259.255 238.753 259.74 237.644 260.052C236.569 260.364 235.252 260.52 233.692 260.52C232.028 260.52 230.52 260.225 229.168 259.636C227.85 259.047 226.81 258.145 226.048 256.932C225.285 255.684 224.904 254.124 224.904 252.252C224.904 249.479 225.996 247.347 228.18 245.856C230.364 244.331 233.726 243.499 238.268 243.36L243 243.204V241.54C243 239.217 242.497 237.605 241.492 236.704C240.486 235.803 239.065 235.352 237.228 235.352C235.772 235.352 234.385 235.577 233.068 236.028C231.75 236.444 230.52 236.929 229.376 237.484L227.972 234.052C229.185 233.393 230.624 232.839 232.288 232.388C233.952 231.903 235.685 231.66 237.488 231.66ZM238.84 246.532C235.373 246.671 232.964 247.225 231.612 248.196C230.294 249.167 229.636 250.536 229.636 252.304C229.636 253.864 230.104 255.008 231.04 255.736C232.01 256.464 233.241 256.828 234.732 256.828C237.089 256.828 239.048 256.187 240.608 254.904C242.168 253.587 242.948 251.576 242.948 248.872V246.376L238.84 246.532Z" fill="black"/>
<path d="M260.656 230.1C260.656 231.279 260.621 232.388 260.552 233.428C260.517 234.433 260.465 235.231 260.396 235.82H260.656C261.453 234.641 262.545 233.653 263.932 232.856C265.319 232.059 267.104 231.66 269.288 231.66C272.755 231.66 275.528 232.873 277.608 235.3C279.723 237.692 280.78 241.28 280.78 246.064C280.78 249.253 280.295 251.923 279.324 254.072C278.388 256.221 277.053 257.833 275.32 258.908C273.587 259.983 271.576 260.52 269.288 260.52C267.104 260.52 265.319 260.121 263.932 259.324C262.545 258.527 261.453 257.573 260.656 256.464H260.292L259.356 260H256.08V220.48H260.656V230.1ZM268.508 235.456C266.532 235.456 264.972 235.837 263.828 236.6C262.684 237.328 261.869 238.472 261.384 240.032C260.899 241.557 260.656 243.516 260.656 245.908V246.116C260.656 249.548 261.211 252.183 262.32 254.02C263.464 255.823 265.561 256.724 268.612 256.724C271.108 256.724 272.963 255.805 274.176 253.968C275.424 252.131 276.048 249.479 276.048 246.012C276.048 242.511 275.424 239.876 274.176 238.108C272.963 236.34 271.073 235.456 268.508 235.456Z" fill="black"/>
<path d="M292.648 260H288.072V220.48H292.648V260Z" fill="black"/>
<path d="M312.243 231.608C314.635 231.608 316.68 232.128 318.379 233.168C320.112 234.208 321.429 235.681 322.331 237.588C323.267 239.46 323.735 241.661 323.735 244.192V246.948H304.651C304.72 250.103 305.517 252.512 307.043 254.176C308.603 255.805 310.769 256.62 313.543 256.62C315.311 256.62 316.871 256.464 318.223 256.152C319.609 255.805 321.031 255.32 322.487 254.696V258.7C321.065 259.324 319.661 259.775 318.275 260.052C316.888 260.364 315.241 260.52 313.335 260.52C310.7 260.52 308.36 259.983 306.315 258.908C304.304 257.833 302.727 256.239 301.583 254.124C300.473 251.975 299.919 249.357 299.919 246.272C299.919 243.221 300.421 240.604 301.427 238.42C302.467 236.236 303.905 234.555 305.743 233.376C307.615 232.197 309.781 231.608 312.243 231.608ZM312.191 235.352C310.007 235.352 308.273 236.063 306.991 237.484C305.743 238.871 304.997 240.812 304.755 243.308H318.951C318.951 241.713 318.708 240.327 318.223 239.148C317.737 237.969 316.992 237.051 315.987 236.392C315.016 235.699 313.751 235.352 312.191 235.352Z" fill="black"/>
<path d="M357.338 231.608C357.858 231.608 358.413 231.643 359.002 231.712C359.626 231.747 360.163 231.816 360.614 231.92L360.042 236.132C359.591 236.028 359.089 235.941 358.534 235.872C358.014 235.803 357.511 235.768 357.026 235.768C355.951 235.768 354.929 235.993 353.958 236.444C352.987 236.895 352.121 237.536 351.358 238.368C350.595 239.165 349.989 240.136 349.538 241.28C349.122 242.424 348.914 243.707 348.914 245.128V260H344.338V232.128H348.082L348.602 237.224H348.81C349.399 236.184 350.11 235.248 350.942 234.416C351.774 233.549 352.727 232.873 353.802 232.388C354.877 231.868 356.055 231.608 357.338 231.608Z" fill="black"/>
<path d="M375.567 231.608C377.959 231.608 380.004 232.128 381.703 233.168C383.436 234.208 384.753 235.681 385.655 237.588C386.591 239.46 387.059 241.661 387.059 244.192V246.948H367.975C368.044 250.103 368.841 252.512 370.367 254.176C371.927 255.805 374.093 256.62 376.867 256.62C378.635 256.62 380.195 256.464 381.547 256.152C382.933 255.805 384.355 255.32 385.811 254.696V258.7C384.389 259.324 382.985 259.775 381.599 260.052C380.212 260.364 378.565 260.52 376.659 260.52C374.024 260.52 371.684 259.983 369.639 258.908C367.628 257.833 366.051 256.239 364.907 254.124C363.797 251.975 363.243 249.357 363.243 246.272C363.243 243.221 363.745 240.604 364.751 238.42C365.791 236.236 367.229 234.555 369.067 233.376C370.939 232.197 373.105 231.608 375.567 231.608ZM375.515 235.352C373.331 235.352 371.597 236.063 370.315 237.484C369.067 238.871 368.321 240.812 368.079 243.308H382.275C382.275 241.713 382.032 240.327 381.547 239.148C381.061 237.969 380.316 237.051 379.311 236.392C378.34 235.699 377.075 235.352 375.515 235.352Z" fill="black"/>
<path d="M412.302 252.304C412.302 254.107 411.852 255.615 410.95 256.828C410.049 258.041 408.766 258.96 407.102 259.584C405.438 260.208 403.462 260.52 401.174 260.52C399.233 260.52 397.552 260.364 396.13 260.052C394.744 259.74 393.513 259.307 392.438 258.752V254.592C393.548 255.147 394.882 255.667 396.442 256.152C398.037 256.603 399.649 256.828 401.278 256.828C403.601 256.828 405.282 256.464 406.322 255.736C407.362 254.973 407.882 253.968 407.882 252.72C407.882 252.027 407.692 251.403 407.31 250.848C406.929 250.293 406.236 249.739 405.23 249.184C404.26 248.629 402.856 248.005 401.018 247.312C399.216 246.619 397.673 245.925 396.39 245.232C395.108 244.539 394.12 243.707 393.426 242.736C392.733 241.765 392.386 240.517 392.386 238.992C392.386 236.635 393.34 234.815 395.246 233.532C397.188 232.249 399.718 231.608 402.838 231.608C404.537 231.608 406.114 231.781 407.57 232.128C409.061 232.44 410.448 232.891 411.73 233.48L410.17 237.12C409.408 236.773 408.593 236.479 407.726 236.236C406.894 235.959 406.045 235.751 405.178 235.612C404.312 235.439 403.428 235.352 402.526 235.352C400.654 235.352 399.216 235.664 398.21 236.288C397.24 236.877 396.754 237.692 396.754 238.732C396.754 239.495 396.98 240.153 397.43 240.708C397.881 241.228 398.626 241.748 399.666 242.268C400.741 242.753 402.162 243.343 403.93 244.036C405.698 244.695 407.206 245.371 408.454 246.064C409.702 246.757 410.656 247.607 411.314 248.612C411.973 249.583 412.302 250.813 412.302 252.304Z" fill="black"/>
<path d="M442.333 232.128V260H438.589L437.913 256.308H437.705C437.116 257.279 436.353 258.076 435.417 258.7C434.481 259.324 433.458 259.775 432.349 260.052C431.24 260.364 430.078 260.52 428.865 260.52C426.646 260.52 424.774 260.173 423.249 259.48C421.758 258.752 420.632 257.643 419.869 256.152C419.106 254.661 418.725 252.737 418.725 250.38V232.128H423.353V250.068C423.353 252.287 423.856 253.951 424.861 255.06C425.866 256.169 427.426 256.724 429.541 256.724C431.621 256.724 433.25 256.343 434.429 255.58C435.642 254.783 436.492 253.639 436.977 252.148C437.497 250.623 437.757 248.785 437.757 246.636V232.128H442.333Z" fill="black"/>
<path d="M455.758 260H451.182V220.48H455.758V260Z" fill="black"/>
<path d="M473.896 256.776C474.589 256.776 475.3 256.724 476.028 256.62C476.756 256.481 477.345 256.343 477.796 256.204V259.688C477.311 259.931 476.617 260.121 475.716 260.26C474.815 260.433 473.948 260.52 473.116 260.52C471.66 260.52 470.308 260.277 469.06 259.792C467.847 259.272 466.859 258.388 466.096 257.14C465.333 255.892 464.952 254.141 464.952 251.888V235.664H461V233.48L465.004 231.66L466.824 225.732H469.528V232.128H477.588V235.664H469.528V251.784C469.528 253.483 469.927 254.748 470.724 255.58C471.556 256.377 472.613 256.776 473.896 256.776Z" fill="black"/>
<path d="M501.525 252.304C501.525 254.107 501.074 255.615 500.173 256.828C499.272 258.041 497.989 258.96 496.325 259.584C494.661 260.208 492.685 260.52 490.397 260.52C488.456 260.52 486.774 260.364 485.353 260.052C483.966 259.74 482.736 259.307 481.661 258.752V254.592C482.77 255.147 484.105 255.667 485.665 256.152C487.26 256.603 488.872 256.828 490.501 256.828C492.824 256.828 494.505 256.464 495.545 255.736C496.585 254.973 497.105 253.968 497.105 252.72C497.105 252.027 496.914 251.403 496.533 250.848C496.152 250.293 495.458 249.739 494.453 249.184C493.482 248.629 492.078 248.005 490.241 247.312C488.438 246.619 486.896 245.925 485.613 245.232C484.33 244.539 483.342 243.707 482.649 242.736C481.956 241.765 481.609 240.517 481.609 238.992C481.609 236.635 482.562 234.815 484.469 233.532C486.41 232.249 488.941 231.608 492.061 231.608C493.76 231.608 495.337 231.781 496.793 232.128C498.284 232.44 499.67 232.891 500.953 233.48L499.393 237.12C498.63 236.773 497.816 236.479 496.949 236.236C496.117 235.959 495.268 235.751 494.401 235.612C493.534 235.439 492.65 235.352 491.749 235.352C489.877 235.352 488.438 235.664 487.433 236.288C486.462 236.877 485.977 237.692 485.977 238.732C485.977 239.495 486.202 240.153 486.653 240.708C487.104 241.228 487.849 241.748 488.889 242.268C489.964 242.753 491.385 243.343 493.153 244.036C494.921 244.695 496.429 245.371 497.677 246.064C498.925 246.757 499.878 247.607 500.537 248.612C501.196 249.583 501.525 250.813 501.525 252.304Z" fill="black"/>
</svg>
