<svg width="120" height="140" viewBox="0 0 120 140" fill="none" xmlns="http://www.w3.org/2000/svg">
<path fill-rule="evenodd" clip-rule="evenodd" d="M0 0L0.279297 80.1172C0.280797 88.3224 1.843 96.1304 4.96875 103.424L4.97266 103.43L4.97461 103.436C8.07432 110.599 12.31 116.926 17.6445 122.33L17.6602 122.346L17.6777 122.363C23.0815 127.698 29.4066 131.934 36.5703 135.033L36.5762 135.037L36.582 135.039C43.879 138.166 51.6928 139.73 59.9024 139.73C68.1076 139.73 75.8876 138.168 83.1231 135.039C90.3528 131.941 96.7176 127.705 102.127 122.365L102.135 122.354L102.145 122.346C107.55 116.941 111.826 110.608 114.93 103.436L114.932 103.43L114.934 103.424C118.058 96.1347 119.655 88.3185 119.625 80.0918L119.334 0H84.002L84.2656 80.1035C84.2649 83.4693 83.6217 86.5452 82.332 89.4609L82.3203 89.4883L82.3086 89.5156C81.0511 92.4879 79.3414 95.0316 77.1348 97.2383C74.9305 99.4426 72.3462 101.191 69.293 102.518C66.3721 103.75 63.2816 104.367 59.9043 104.367C56.5319 104.367 53.4033 103.75 50.4082 102.512C47.4325 101.19 44.8789 99.4453 42.6719 97.2383C40.4615 95.0279 38.7174 92.47 37.3945 89.4883C36.166 86.5745 35.5518 83.4833 35.543 80.0957L35.3379 0H0Z" fill="black"/>
</svg>
