<svg width="730" height="276" viewBox="0 0 730 276" fill="none" xmlns="http://www.w3.org/2000/svg">
<path fill-rule="evenodd" clip-rule="evenodd" d="M311.111 146.22H275.694V57.6777C275.694 55.2472 275.216 52.9469 274.262 50.7767C273.394 48.6066 272.135 46.6969 270.486 45.0475C268.836 43.3982 266.926 42.1395 264.756 41.2715C262.586 40.3166 260.286 39.8392 257.855 39.8392C255.425 39.8392 253.124 40.3166 250.954 41.2715C248.871 42.1395 247.005 43.3982 245.355 45.0475C243.793 46.6969 242.534 48.6066 241.579 50.7767C240.711 52.9469 240.277 55.2472 240.277 57.6777V146.22H204.73V57.6777C204.73 55.2472 204.253 52.9469 203.298 50.7767C202.43 48.6066 201.171 46.6969 199.522 45.0475C197.873 43.3982 195.963 42.1395 193.793 41.2715C191.623 40.3166 189.322 39.8392 186.892 39.8392C184.461 39.8392 182.161 40.3166 179.991 41.2715C177.907 42.1395 176.041 43.3982 174.392 45.0475C172.829 46.6969 171.57 48.6066 170.616 50.7767C169.748 52.9469 169.314 55.2472 169.314 57.6777V146.22H133.767V6.76624H142.36L151.996 17.4434C156.944 13.2767 162.369 10.0649 168.272 7.80792C174.261 5.46417 180.468 4.2923 186.892 4.2923C193.402 4.2923 199.739 5.50755 205.902 7.93811C212.152 10.3687 217.621 14.5788 222.308 20.5684C224.479 17.617 226.952 15.0996 229.73 13.0162C232.508 10.9329 235.416 9.2402 238.454 7.93811C241.579 6.63602 244.791 5.72457 248.09 5.20374C251.388 4.5961 254.643 4.2923 257.855 4.2923C265.234 4.2923 272.135 5.6812 278.558 8.45898C285.069 11.2368 290.711 15.0562 295.486 19.9173C300.347 24.6916 304.166 30.334 306.944 36.8444C309.722 43.3548 311.111 50.2993 311.111 57.6777V146.22ZM464.288 75.2559C464.288 85.6726 462.422 95.3948 458.689 104.423C454.956 113.364 449.878 121.133 443.454 127.73C437.031 134.24 429.479 139.405 420.798 143.225C412.204 146.957 402.96 148.824 393.064 148.824C383.255 148.824 374.01 146.957 365.329 143.225C356.736 139.405 349.184 134.24 342.673 127.73C336.25 121.133 331.171 113.364 327.439 104.423C323.706 95.3948 321.84 85.6726 321.84 75.2559C321.84 64.6656 323.706 54.8566 327.439 45.8288C331.171 36.801 336.25 29.0319 342.673 22.5215C349.184 15.9243 356.736 10.7593 365.329 7.02667C374.01 3.29403 383.255 1.42773 393.064 1.42773C402.96 1.42773 412.204 3.20721 420.798 6.76624C429.479 10.2385 437.031 15.2298 443.454 21.7402C449.878 28.1639 454.956 35.933 458.689 45.0475C462.422 54.0753 464.288 64.1448 464.288 75.2559ZM428.48 75.2559C428.48 69.5267 427.526 64.3618 425.616 59.7611C423.793 55.0736 421.276 51.0805 418.064 47.7819C414.852 44.3965 411.076 41.8357 406.736 40.0996C402.482 38.2767 397.925 37.3652 393.064 37.3652C388.203 37.3652 383.602 38.2767 379.262 40.0996C375.008 41.8357 371.276 44.3965 368.064 47.7819C364.939 51.0805 362.465 55.0736 360.642 59.7611C358.819 64.3618 357.908 69.5267 357.908 75.2559C357.908 80.6379 358.819 85.6292 360.642 90.2299C362.465 94.8306 364.939 98.8236 368.064 102.209C371.276 105.594 375.008 108.285 379.262 110.282C383.602 112.192 388.203 113.147 393.064 113.147C397.925 113.147 402.482 112.235 406.736 110.412C411.076 108.589 414.852 106.029 418.064 102.73C421.276 99.4313 423.793 95.4382 425.616 90.7507C427.526 86.0632 428.48 80.8983 428.48 75.2559ZM553.012 146.22H471.762V110.803H553.012C555.442 110.803 557.526 109.935 559.262 108.199C560.998 106.463 561.866 104.379 561.866 101.949C561.866 99.4313 560.998 97.782 559.262 97.0007C557.526 96.2195 555.442 95.8289 553.012 95.8289H516.033C509.869 95.8289 504.097 94.657 498.715 92.3132C493.333 89.9695 488.646 86.801 484.652 82.808C480.659 78.7281 477.491 73.9972 475.147 68.6153C472.89 63.2333 471.762 57.4607 471.762 51.2975C471.762 45.1343 472.89 39.3618 475.147 33.9798C477.491 28.5978 480.659 23.9104 484.652 19.9173C488.646 15.9242 493.333 12.7992 498.715 10.5423C504.097 8.19854 509.869 7.02667 516.033 7.02667H588.038V42.4434H516.033C513.602 42.4434 511.519 43.3114 509.783 45.0475C508.047 46.7837 507.179 48.867 507.179 51.2975C507.179 53.8149 508.047 55.9851 509.783 57.808C511.519 59.5441 513.602 60.4122 516.033 60.4122H553.012C559.088 60.4122 564.817 61.4538 570.199 63.5372C575.581 65.5337 580.269 68.3549 584.262 72.0007C588.255 75.6466 591.423 80.0303 593.767 85.1518C596.111 90.2733 597.283 95.8723 597.283 101.949C597.283 108.112 596.111 113.884 593.767 119.266C591.423 124.562 588.255 129.249 584.262 133.329C580.269 137.322 575.581 140.49 570.199 142.834C564.817 145.091 559.088 146.22 553.012 146.22ZM685.226 146.22H603.976V110.803H685.226C687.656 110.803 689.74 109.935 691.476 108.199C693.212 106.463 694.08 104.379 694.08 101.949C694.08 99.4313 693.212 97.782 691.476 97.0007C689.74 96.2195 687.656 95.8289 685.226 95.8289H648.246C642.083 95.8289 636.311 94.657 630.929 92.3132C625.547 89.9695 620.859 86.801 616.866 82.808C612.873 78.7281 609.705 73.9972 607.361 68.6153C605.104 63.2333 603.976 57.4607 603.976 51.2975C603.976 45.1343 605.104 39.3618 607.361 33.9798C609.705 28.5978 612.873 23.9104 616.866 19.9173C620.859 15.9242 625.547 12.7992 630.929 10.5423C636.311 8.19854 642.083 7.02667 648.246 7.02667H720.252V42.4434H648.246C645.816 42.4434 643.733 43.3114 641.996 45.0475C640.26 46.7837 639.392 48.867 639.392 51.2975C639.392 53.8149 640.26 55.9851 641.996 57.808C643.733 59.5441 645.816 60.4122 648.246 60.4122H685.226C691.302 60.4122 697.031 61.4538 702.413 63.5372C707.795 65.5337 712.483 68.3549 716.476 72.0007C720.469 75.6466 723.637 80.0303 725.981 85.1518C728.325 90.2733 729.497 95.8723 729.497 101.949C729.497 108.112 728.325 113.884 725.981 119.266C723.637 124.562 720.469 129.249 716.476 133.329C712.483 137.322 707.795 140.49 702.413 142.834C697.031 145.091 691.302 146.22 685.226 146.22Z" fill="white"/>
<path fill-rule="evenodd" clip-rule="evenodd" d="M0 6.61499L0.279297 86.7322C0.280797 94.9374 1.843 102.745 4.96875 110.039L4.97266 110.045L4.97461 110.051C8.07432 117.214 12.31 123.541 17.6445 128.945L17.6602 128.961L17.6777 128.978C23.0815 134.313 29.4066 138.548 36.5703 141.648L36.5762 141.652L36.582 141.654C43.879 144.781 51.6928 146.345 59.9024 146.345C68.1076 146.345 75.8876 144.783 83.1231 141.654C90.3528 138.556 96.7176 134.32 102.127 128.98L102.135 128.969L102.145 128.961C107.55 123.556 111.826 117.223 114.93 110.051L114.932 110.045L114.934 110.039C118.058 102.75 119.655 94.9335 119.625 86.7068L119.334 6.61499H84.002L84.2656 86.7185C84.2649 90.0843 83.6217 93.1602 82.332 96.0759L82.3203 96.1033L82.3086 96.1306C81.0511 99.1029 79.3414 101.647 77.1348 103.853C74.9305 106.058 72.3462 107.806 69.293 109.133C66.3721 110.365 63.2816 110.982 59.9043 110.982C56.5319 110.982 53.4033 110.365 50.4082 109.127C47.4325 107.805 44.8789 106.06 42.6719 103.853C40.4615 101.643 38.7174 99.085 37.3945 96.1033C36.166 93.1895 35.5518 90.0983 35.543 86.7107L35.3379 6.61499H0Z" fill="white"/>
<path d="M139.096 176.487H143.464V196.871C143.464 197.738 143.447 198.691 143.412 199.731C143.412 200.736 143.395 201.742 143.36 202.747C143.325 203.752 143.273 204.654 143.204 205.451C143.169 206.214 143.135 206.803 143.1 207.219H143.308L163.744 176.487H168.944V213.615H164.576V193.439C164.576 192.503 164.593 191.498 164.628 190.423C164.663 189.314 164.697 188.256 164.732 187.251C164.801 186.211 164.853 185.292 164.888 184.495C164.923 183.698 164.957 183.108 164.992 182.727H164.784L144.296 213.615H139.096V176.487Z" fill="white"/>
<path d="M182.91 185.743V197.339H198.042V185.743H202.618V213.615H198.042V201.187H182.91V213.615H178.334V185.743H182.91Z" fill="white"/>
<path d="M244.879 185.743L233.387 199.263L245.867 213.615H240.667L228.603 199.471V213.615H224.339V199.471L212.275 213.615H207.075L219.555 199.263L208.063 185.743H213.055L224.339 199.263V185.743H228.603V199.263L239.939 185.743H244.879Z" fill="white"/>
<path d="M260.192 185.223C262.584 185.223 264.629 185.743 266.328 186.783C268.061 187.823 269.378 189.296 270.28 191.203C271.216 193.075 271.684 195.276 271.684 197.807V200.563H252.6C252.669 203.718 253.466 206.127 254.992 207.791C256.552 209.42 258.718 210.235 261.492 210.235C263.26 210.235 264.82 210.079 266.172 209.767C267.558 209.42 268.98 208.935 270.436 208.311V212.315C269.014 212.939 267.61 213.39 266.224 213.667C264.837 213.979 263.19 214.135 261.284 214.135C258.649 214.135 256.309 213.598 254.264 212.523C252.253 211.448 250.676 209.854 249.532 207.739C248.422 205.59 247.868 202.972 247.868 199.887C247.868 196.836 248.37 194.219 249.376 192.035C250.416 189.851 251.854 188.17 253.692 186.991C255.564 185.812 257.73 185.223 260.192 185.223ZM260.14 188.967C257.956 188.967 256.222 189.678 254.94 191.099C253.692 192.486 252.946 194.427 252.704 196.923H266.9C266.9 195.328 266.657 193.942 266.172 192.763C265.686 191.584 264.941 190.666 263.936 190.007C262.965 189.314 261.7 188.967 260.14 188.967Z" fill="white"/>
<path d="M283.355 185.743V197.339H298.487V185.743H303.063V213.615H298.487V201.187H283.355V213.615H278.779V185.743H283.355Z" fill="white"/>
<path d="M322.653 185.223C325.045 185.223 327.09 185.743 328.789 186.783C330.522 187.823 331.839 189.296 332.741 191.203C333.677 193.075 334.145 195.276 334.145 197.807V200.563H315.061C315.13 203.718 315.927 206.127 317.453 207.791C319.013 209.42 321.179 210.235 323.953 210.235C325.721 210.235 327.281 210.079 328.633 209.767C330.019 209.42 331.441 208.935 332.897 208.311V212.315C331.475 212.939 330.071 213.39 328.685 213.667C327.298 213.979 325.651 214.135 323.745 214.135C321.11 214.135 318.77 213.598 316.725 212.523C314.714 211.448 313.137 209.854 311.993 207.739C310.883 205.59 310.329 202.972 310.329 199.887C310.329 196.836 310.831 194.219 311.837 192.035C312.877 189.851 314.315 188.17 316.153 186.991C318.025 185.812 320.191 185.223 322.653 185.223ZM322.601 188.967C320.417 188.967 318.683 189.678 317.401 191.099C316.153 192.486 315.407 194.427 315.165 196.923H329.361C329.361 195.328 329.118 193.942 328.633 192.763C328.147 191.584 327.402 190.666 326.397 190.007C325.426 189.314 324.161 188.967 322.601 188.967Z" fill="white"/>
<path d="M354.5 185.223C357.932 185.223 360.688 186.419 362.768 188.811C364.883 191.203 365.94 194.808 365.94 199.627C365.94 202.782 365.455 205.451 364.484 207.635C363.548 209.784 362.214 211.414 360.48 212.523C358.782 213.598 356.771 214.135 354.448 214.135C353.027 214.135 351.762 213.944 350.652 213.563C349.543 213.182 348.59 212.696 347.792 212.107C347.03 211.483 346.371 210.807 345.816 210.079H345.504C345.574 210.668 345.643 211.414 345.712 212.315C345.782 213.216 345.816 213.996 345.816 214.655V226.095H341.24V185.743H344.984L345.608 189.539H345.816C346.371 188.742 347.03 188.014 347.792 187.355C348.59 186.696 349.526 186.176 350.6 185.795C351.71 185.414 353.01 185.223 354.5 185.223ZM353.668 189.071C351.796 189.071 350.288 189.435 349.144 190.163C348 190.856 347.168 191.914 346.648 193.335C346.128 194.756 345.851 196.559 345.816 198.743V199.627C345.816 201.915 346.059 203.856 346.544 205.451C347.03 207.046 347.844 208.259 348.988 209.091C350.167 209.923 351.762 210.339 353.772 210.339C355.471 210.339 356.858 209.871 357.932 208.935C359.042 207.999 359.856 206.734 360.376 205.139C360.931 203.51 361.208 201.655 361.208 199.575C361.208 196.386 360.584 193.838 359.336 191.931C358.123 190.024 356.234 189.071 353.668 189.071Z" fill="white"/>
<path d="M377.808 185.743V197.339H392.94V185.743H397.516V213.615H392.94V201.187H377.808V213.615H373.232V185.743H377.808Z" fill="white"/>
<path d="M406.342 213.615V185.743H410.918V197.183H418.146C420.572 197.183 422.566 197.478 424.126 198.067C425.686 198.656 426.847 199.54 427.61 200.719C428.372 201.863 428.754 203.319 428.754 205.087C428.754 206.82 428.372 208.328 427.61 209.611C426.882 210.894 425.72 211.882 424.126 212.575C422.566 213.268 420.503 213.615 417.938 213.615H406.342ZM417.522 209.923C419.498 209.923 421.11 209.594 422.358 208.935C423.606 208.242 424.23 207.046 424.23 205.347C424.23 203.648 423.658 202.504 422.514 201.915C421.37 201.291 419.723 200.979 417.574 200.979H410.918V209.923H417.522ZM433.382 213.615V185.743H437.958V213.615H433.382Z" fill="white"/>
<path d="M457.578 185.223C459.97 185.223 462.016 185.743 463.714 186.783C465.448 187.823 466.765 189.296 467.666 191.203C468.602 193.075 469.07 195.276 469.07 197.807V200.563H449.986C450.056 203.718 450.853 206.127 452.378 207.791C453.938 209.42 456.105 210.235 458.878 210.235C460.646 210.235 462.206 210.079 463.558 209.767C464.945 209.42 466.366 208.935 467.822 208.311V212.315C466.401 212.939 464.997 213.39 463.61 213.667C462.224 213.979 460.577 214.135 458.67 214.135C456.036 214.135 453.696 213.598 451.65 212.523C449.64 211.448 448.062 209.854 446.918 207.739C445.809 205.59 445.254 202.972 445.254 199.887C445.254 196.836 445.757 194.219 446.762 192.035C447.802 189.851 449.241 188.17 451.078 186.991C452.95 185.812 455.117 185.223 457.578 185.223ZM457.526 188.967C455.342 188.967 453.609 189.678 452.326 191.099C451.078 192.486 450.333 194.427 450.09 196.923H464.286C464.286 195.328 464.044 193.942 463.558 192.763C463.073 191.584 462.328 190.666 461.322 190.007C460.352 189.314 459.086 188.967 457.526 188.967Z" fill="white"/>
<path d="M502.934 185.223C506.366 185.223 509.122 186.419 511.202 188.811C513.316 191.203 514.374 194.808 514.374 199.627C514.374 202.782 513.888 205.451 512.918 207.635C511.982 209.784 510.647 211.414 508.914 212.523C507.215 213.598 505.205 214.135 502.882 214.135C501.461 214.135 500.195 213.944 499.086 213.563C497.976 213.182 497.023 212.696 496.226 212.107C495.463 211.483 494.804 210.807 494.25 210.079H493.938C494.007 210.668 494.076 211.414 494.146 212.315C494.215 213.216 494.25 213.996 494.25 214.655V226.095H489.674V185.743H493.418L494.042 189.539H494.25C494.804 188.742 495.463 188.014 496.226 187.355C497.023 186.696 497.959 186.176 499.034 185.795C500.143 185.414 501.443 185.223 502.934 185.223ZM502.102 189.071C500.23 189.071 498.722 189.435 497.578 190.163C496.434 190.856 495.602 191.914 495.082 193.335C494.562 194.756 494.284 196.559 494.25 198.743V199.627C494.25 201.915 494.492 203.856 494.978 205.451C495.463 207.046 496.278 208.259 497.422 209.091C498.6 209.923 500.195 210.339 502.206 210.339C503.904 210.339 505.291 209.871 506.366 208.935C507.475 207.999 508.29 206.734 508.81 205.139C509.364 203.51 509.642 201.655 509.642 199.575C509.642 196.386 509.018 193.838 507.77 191.931C506.556 190.024 504.667 189.071 502.102 189.071Z" fill="white"/>
<path d="M532.43 185.223C534.822 185.223 536.867 185.743 538.566 186.783C540.299 187.823 541.617 189.296 542.518 191.203C543.454 193.075 543.922 195.276 543.922 197.807V200.563H524.838C524.907 203.718 525.705 206.127 527.23 207.791C528.79 209.42 530.957 210.235 533.73 210.235C535.498 210.235 537.058 210.079 538.41 209.767C539.797 209.42 541.218 208.935 542.674 208.311V212.315C541.253 212.939 539.849 213.39 538.462 213.667C537.075 213.979 535.429 214.135 533.522 214.135C530.887 214.135 528.547 213.598 526.502 212.523C524.491 211.448 522.914 209.854 521.77 207.739C520.661 205.59 520.106 202.972 520.106 199.887C520.106 196.836 520.609 194.219 521.614 192.035C522.654 189.851 524.093 188.17 525.93 186.991C527.802 185.812 529.969 185.223 532.43 185.223ZM532.378 188.967C530.194 188.967 528.461 189.678 527.178 191.099C525.93 192.486 525.185 194.427 524.942 196.923H539.138C539.138 195.328 538.895 193.942 538.41 192.763C537.925 191.584 537.179 190.666 536.174 190.007C535.203 189.314 533.938 188.967 532.378 188.967Z" fill="white"/>
<path d="M588.822 185.743V213.615H551.018V185.743H555.594V209.767H567.606V185.743H572.182V209.767H584.246V185.743H588.822Z" fill="white"/>
<path d="M608.5 185.223C610.892 185.223 612.938 185.743 614.636 186.783C616.37 187.823 617.687 189.296 618.588 191.203C619.524 193.075 619.992 195.276 619.992 197.807V200.563H600.908C600.978 203.718 601.775 206.127 603.3 207.791C604.86 209.42 607.027 210.235 609.8 210.235C611.568 210.235 613.128 210.079 614.48 209.767C615.867 209.42 617.288 208.935 618.744 208.311V212.315C617.323 212.939 615.919 213.39 614.532 213.667C613.146 213.979 611.499 214.135 609.592 214.135C606.958 214.135 604.618 213.598 602.572 212.523C600.562 211.448 598.984 209.854 597.84 207.739C596.731 205.59 596.176 202.972 596.176 199.887C596.176 196.836 596.679 194.219 597.684 192.035C598.724 189.851 600.163 188.17 602 186.991C603.872 185.812 606.039 185.223 608.5 185.223ZM608.448 188.967C606.264 188.967 604.531 189.678 603.248 191.099C602 192.486 601.255 194.427 601.012 196.923H615.208C615.208 195.328 614.966 193.942 614.48 192.763C613.995 191.584 613.25 190.666 612.244 190.007C611.274 189.314 610.008 188.967 608.448 188.967Z" fill="white"/>
<path d="M631.664 185.743V197.339H646.796V185.743H651.372V213.615H646.796V201.187H631.664V213.615H627.088V185.743H631.664Z" fill="white"/>
<path d="M664.513 202.747C664.513 203.059 664.496 203.51 664.461 204.099C664.461 204.654 664.444 205.26 664.409 205.919C664.375 206.543 664.34 207.15 664.305 207.739C664.271 208.294 664.236 208.744 664.201 209.091L679.125 185.743H684.741V213.615H680.477V197.183C680.477 196.628 680.477 195.9 680.477 194.999C680.512 194.098 680.547 193.214 680.581 192.347C680.616 191.446 680.651 190.77 680.685 190.319L665.865 213.615H660.197V185.743H664.513V202.747Z" fill="white"/>
<path d="M695.327 213.615H690.023L697.979 201.915C696.905 201.638 695.865 201.204 694.859 200.615C693.854 199.991 693.039 199.142 692.415 198.067C691.791 196.958 691.479 195.588 691.479 193.959C691.479 191.29 692.381 189.262 694.183 187.875C695.986 186.454 698.378 185.743 701.359 185.743H713.839V213.615H709.263V202.539H702.503L695.327 213.615ZM695.899 194.011C695.899 195.606 696.489 196.802 697.667 197.599C698.881 198.362 700.562 198.743 702.711 198.743H709.263V189.539H701.827C699.713 189.539 698.187 189.955 697.251 190.787C696.35 191.619 695.899 192.694 695.899 194.011Z" fill="white"/>
<path d="M167.436 260.846H162.756V243.53H143.724V260.846H139.044V223.718H143.724V239.422H162.756V223.718H167.436V260.846Z" fill="white"/>
<path d="M187.519 232.506C190.916 232.506 193.43 233.251 195.059 234.742C196.688 236.232 197.503 238.607 197.503 241.866V260.846H194.175L193.291 256.894H193.083C192.286 257.899 191.454 258.748 190.587 259.442C189.755 260.1 188.784 260.586 187.675 260.898C186.6 261.21 185.283 261.366 183.723 261.366C182.059 261.366 180.551 261.071 179.199 260.482C177.882 259.892 176.842 258.991 176.079 257.778C175.316 256.53 174.935 254.97 174.935 253.098C174.935 250.324 176.027 248.192 178.211 246.702C180.395 245.176 183.758 244.344 188.299 244.206L193.031 244.05V242.386C193.031 240.063 192.528 238.451 191.523 237.55C190.518 236.648 189.096 236.198 187.259 236.198C185.803 236.198 184.416 236.423 183.099 236.874C181.782 237.29 180.551 237.775 179.407 238.33L178.003 234.898C179.216 234.239 180.655 233.684 182.319 233.234C183.983 232.748 185.716 232.506 187.519 232.506ZM188.871 247.378C185.404 247.516 182.995 248.071 181.643 249.042C180.326 250.012 179.667 251.382 179.667 253.15C179.667 254.71 180.135 255.854 181.071 256.582C182.042 257.31 183.272 257.674 184.763 257.674C187.12 257.674 189.079 257.032 190.639 255.75C192.199 254.432 192.979 252.422 192.979 249.718V247.222L188.871 247.378Z" fill="white"/>
<path d="M226.807 232.974V256.998H230.863V270.518H226.443V260.846H207.047V270.518H202.679V256.998H204.915C206.51 254.779 207.827 252.37 208.867 249.77C209.942 247.135 210.739 244.396 211.259 241.554C211.814 238.676 212.109 235.816 212.143 232.974H226.807ZM216.199 236.562C216.061 238.919 215.697 241.363 215.107 243.894C214.518 246.39 213.755 248.782 212.819 251.07C211.918 253.358 210.861 255.334 209.647 256.998H222.387V236.562H216.199Z" fill="white"/>
<path d="M247.09 232.454C249.482 232.454 251.528 232.974 253.226 234.014C254.96 235.054 256.277 236.527 257.178 238.434C258.114 240.306 258.582 242.507 258.582 245.038V247.794H239.498C239.568 250.948 240.365 253.358 241.89 255.022C243.45 256.651 245.617 257.466 248.39 257.466C250.158 257.466 251.718 257.31 253.07 256.998C254.457 256.651 255.878 256.166 257.334 255.542V259.546C255.913 260.17 254.509 260.62 253.122 260.898C251.736 261.21 250.089 261.366 248.182 261.366C245.548 261.366 243.208 260.828 241.162 259.754C239.152 258.679 237.574 257.084 236.43 254.97C235.321 252.82 234.766 250.203 234.766 247.118C234.766 244.067 235.269 241.45 236.274 239.266C237.314 237.082 238.753 235.4 240.59 234.222C242.462 233.043 244.629 232.454 247.09 232.454ZM247.038 236.198C244.854 236.198 243.121 236.908 241.838 238.33C240.59 239.716 239.845 241.658 239.602 244.154H253.798C253.798 242.559 253.556 241.172 253.07 239.994C252.585 238.815 251.84 237.896 250.834 237.238C249.864 236.544 248.598 236.198 247.038 236.198Z" fill="white"/>
<path d="M299.114 232.974L287.622 246.494L300.102 260.846H294.902L282.838 246.702V260.846H278.574V246.702L266.51 260.846H261.31L273.79 246.494L262.298 232.974H267.29L278.574 246.494V232.974H282.838V246.494L294.174 232.974H299.114Z" fill="white"/>
<path d="M309.254 232.974V244.57H324.386V232.974H328.962V260.846H324.386V248.418H309.254V260.846H304.678V232.974H309.254Z" fill="white"/>
<path d="M337.787 260.846V232.974H342.363V244.414H349.591C352.018 244.414 354.011 244.708 355.571 245.298C357.131 245.887 358.292 246.771 359.055 247.95C359.818 249.094 360.199 250.55 360.199 252.318C360.199 254.051 359.818 255.559 359.055 256.842C358.327 258.124 357.166 259.112 355.571 259.806C354.011 260.499 351.948 260.846 349.383 260.846H337.787ZM348.967 257.154C350.943 257.154 352.555 256.824 353.803 256.166C355.051 255.472 355.675 254.276 355.675 252.578C355.675 250.879 355.103 249.735 353.959 249.146C352.815 248.522 351.168 248.21 349.019 248.21H342.363V257.154H348.967ZM364.827 260.846V232.974H369.403V260.846H364.827Z" fill="white"/>
<path d="M400.828 221.43C400.689 223.163 400.256 224.619 399.528 225.798C398.834 226.976 397.794 227.86 396.408 228.45C395.021 229.039 393.218 229.334 391 229.334C388.746 229.334 386.926 229.039 385.54 228.45C384.188 227.86 383.2 226.994 382.576 225.85C381.952 224.671 381.57 223.198 381.432 221.43H385.696C385.869 223.302 386.354 224.567 387.152 225.226C387.984 225.85 389.301 226.162 391.104 226.162C392.698 226.162 393.946 225.832 394.848 225.174C395.784 224.48 396.338 223.232 396.512 221.43H400.828ZM382.576 249.978C382.576 250.29 382.558 250.74 382.524 251.33C382.524 251.884 382.506 252.491 382.472 253.15C382.437 253.774 382.402 254.38 382.368 254.97C382.333 255.524 382.298 255.975 382.264 256.322L397.188 232.974H402.804V260.846H398.54V244.414C398.54 243.859 398.54 243.131 398.54 242.23C398.574 241.328 398.609 240.444 398.644 239.578C398.678 238.676 398.713 238 398.748 237.55L383.928 260.846H378.26V232.974H382.576V249.978Z" fill="white"/>
<path d="M438.442 232.454C441.874 232.454 444.63 233.65 446.71 236.042C448.824 238.434 449.882 242.039 449.882 246.858C449.882 250.012 449.396 252.682 448.426 254.866C447.49 257.015 446.155 258.644 444.422 259.754C442.723 260.828 440.712 261.366 438.39 261.366C436.968 261.366 435.703 261.175 434.594 260.794C433.484 260.412 432.531 259.927 431.734 259.338C430.971 258.714 430.312 258.038 429.758 257.31H429.446C429.515 257.899 429.584 258.644 429.654 259.546C429.723 260.447 429.758 261.227 429.758 261.886V273.326H425.182V232.974H428.926L429.55 236.77H429.758C430.312 235.972 430.971 235.244 431.734 234.586C432.531 233.927 433.467 233.407 434.542 233.026C435.651 232.644 436.951 232.454 438.442 232.454ZM437.61 236.302C435.738 236.302 434.23 236.666 433.086 237.394C431.942 238.087 431.11 239.144 430.59 240.566C430.07 241.987 429.792 243.79 429.758 245.974V246.858C429.758 249.146 430 251.087 430.486 252.682C430.971 254.276 431.786 255.49 432.93 256.322C434.108 257.154 435.703 257.57 437.714 257.57C439.412 257.57 440.799 257.102 441.874 256.166C442.983 255.23 443.798 253.964 444.318 252.37C444.872 250.74 445.15 248.886 445.15 246.806C445.15 243.616 444.526 241.068 443.278 239.162C442.064 237.255 440.175 236.302 437.61 236.302Z" fill="white"/>
<path d="M467.938 232.454C470.33 232.454 472.375 232.974 474.074 234.014C475.807 235.054 477.124 236.527 478.026 238.434C478.962 240.306 479.43 242.507 479.43 245.038V247.794H460.346C460.415 250.948 461.212 253.358 462.738 255.022C464.298 256.651 466.464 257.466 469.238 257.466C471.006 257.466 472.566 257.31 473.918 256.998C475.304 256.651 476.726 256.166 478.182 255.542V259.546C476.76 260.17 475.356 260.62 473.97 260.898C472.583 261.21 470.936 261.366 469.03 261.366C466.395 261.366 464.055 260.828 462.01 259.754C459.999 258.679 458.422 257.084 457.278 254.97C456.168 252.82 455.614 250.203 455.614 247.118C455.614 244.067 456.116 241.45 457.122 239.266C458.162 237.082 459.601 235.4 461.438 234.222C463.31 233.043 465.477 232.454 467.938 232.454ZM467.886 236.198C465.702 236.198 463.968 236.908 462.686 238.33C461.438 239.716 460.692 241.658 460.45 244.154H474.646C474.646 242.559 474.403 241.172 473.918 239.994C473.432 238.815 472.687 237.896 471.682 237.238C470.711 236.544 469.446 236.198 467.886 236.198Z" fill="white"/>
<path d="M493.857 232.454C495.972 232.454 497.809 232.748 499.369 233.338C500.929 233.892 502.143 234.724 503.009 235.834C503.876 236.908 504.309 238.226 504.309 239.786C504.309 241.484 503.841 242.836 502.905 243.842C501.969 244.812 500.687 245.523 499.057 245.974V246.182C500.167 246.494 501.189 246.927 502.125 247.482C503.061 248.036 503.807 248.764 504.361 249.666C504.951 250.567 505.245 251.728 505.245 253.15C505.245 254.675 504.812 256.062 503.945 257.31C503.113 258.558 501.813 259.546 500.045 260.274C498.312 261.002 496.076 261.366 493.337 261.366C492.02 261.366 490.755 261.296 489.541 261.158C488.363 261.019 487.288 260.811 486.317 260.534C485.381 260.256 484.549 259.927 483.821 259.546V255.438C485 255.992 486.387 256.495 487.981 256.946C489.611 257.396 491.379 257.622 493.285 257.622C494.672 257.622 495.92 257.466 497.029 257.154C498.173 256.842 499.075 256.356 499.733 255.698C500.392 255.004 500.721 254.068 500.721 252.89C500.721 251.815 500.427 250.948 499.837 250.29C499.248 249.596 498.364 249.076 497.185 248.73C496.041 248.383 494.568 248.21 492.765 248.21H489.021V244.466H492.037C494.429 244.466 496.336 244.154 497.757 243.53C499.213 242.871 499.941 241.762 499.941 240.202C499.941 238.884 499.387 237.896 498.277 237.238C497.203 236.579 495.643 236.25 493.597 236.25C492.072 236.25 490.72 236.406 489.541 236.718C488.397 236.995 487.132 237.428 485.745 238.018L484.133 234.378C485.624 233.719 487.184 233.234 488.813 232.922C490.443 232.61 492.124 232.454 493.857 232.454Z" fill="white"/>
<path d="M507.65 232.974H512.538L518.57 248.834C518.916 249.77 519.228 250.671 519.506 251.538C519.818 252.404 520.095 253.254 520.338 254.086C520.58 254.883 520.771 255.663 520.91 256.426H521.118C521.326 255.559 521.655 254.432 522.106 253.046C522.556 251.624 523.024 250.203 523.51 248.782L529.178 232.974H534.118L522.106 264.694C521.447 266.427 520.667 267.935 519.766 269.218C518.899 270.535 517.824 271.54 516.542 272.234C515.294 272.962 513.768 273.326 511.966 273.326C511.134 273.326 510.406 273.274 509.782 273.17C509.158 273.1 508.62 273.014 508.17 272.91V269.27C508.551 269.339 509.002 269.408 509.522 269.478C510.076 269.547 510.648 269.582 511.238 269.582C512.312 269.582 513.231 269.374 513.994 268.958C514.791 268.576 515.467 268.004 516.022 267.242C516.576 266.514 517.044 265.647 517.426 264.642L518.882 260.95L507.65 232.974Z" fill="white"/>
<path d="M558.726 260.846H554.098V236.77H545.882C545.535 241.172 545.102 244.934 544.582 248.054C544.062 251.139 543.403 253.652 542.606 255.594C541.808 257.535 540.855 258.956 539.746 259.858C538.636 260.759 537.336 261.21 535.846 261.21C535.395 261.21 534.944 261.175 534.494 261.106C534.078 261.071 533.731 260.984 533.454 260.846V257.414C533.662 257.483 533.887 257.535 534.13 257.57C534.372 257.604 534.615 257.622 534.858 257.622C535.62 257.622 536.314 257.31 536.938 256.686C537.562 256.062 538.116 255.108 538.602 253.826C539.122 252.543 539.59 250.931 540.006 248.99C540.422 247.014 540.786 244.691 541.098 242.022C541.41 239.352 541.687 236.336 541.93 232.974H558.726V260.846Z" fill="white"/>
<path d="M580.416 244.414C582.843 244.414 584.854 244.708 586.448 245.298C588.043 245.887 589.239 246.771 590.036 247.95C590.868 249.094 591.284 250.55 591.284 252.318C591.284 254.051 590.886 255.559 590.088 256.842C589.326 258.124 588.13 259.112 586.5 259.806C584.871 260.499 582.774 260.846 580.208 260.846H567.572V232.974H572.148V244.414H580.416ZM586.708 252.578C586.708 250.879 586.102 249.735 584.888 249.146C583.71 248.522 582.046 248.21 579.896 248.21H572.148V257.154H580C581.942 257.154 583.536 256.807 584.784 256.114C586.067 255.42 586.708 254.242 586.708 252.578Z" fill="white"/>
<path d="M615.097 236.822H605.997V260.846H601.473V236.822H592.477V232.974H615.097V236.822Z" fill="white"/>
<path d="M631.144 232.506C634.541 232.506 637.055 233.251 638.684 234.742C640.313 236.232 641.128 238.607 641.128 241.866V260.846H637.8L636.916 256.894H636.708C635.911 257.899 635.079 258.748 634.212 259.442C633.38 260.1 632.409 260.586 631.3 260.898C630.225 261.21 628.908 261.366 627.348 261.366C625.684 261.366 624.176 261.071 622.824 260.482C621.507 259.892 620.467 258.991 619.704 257.778C618.941 256.53 618.56 254.97 618.56 253.098C618.56 250.324 619.652 248.192 621.836 246.702C624.02 245.176 627.383 244.344 631.924 244.206L636.656 244.05V242.386C636.656 240.063 636.153 238.451 635.148 237.55C634.143 236.648 632.721 236.198 630.884 236.198C629.428 236.198 628.041 236.423 626.724 236.874C625.407 237.29 624.176 237.775 623.032 238.33L621.628 234.898C622.841 234.239 624.28 233.684 625.944 233.234C627.608 232.748 629.341 232.506 631.144 232.506ZM632.496 247.378C629.029 247.516 626.62 248.071 625.268 249.042C623.951 250.012 623.292 251.382 623.292 253.15C623.292 254.71 623.76 255.854 624.696 256.582C625.667 257.31 626.897 257.674 628.388 257.674C630.745 257.674 632.704 257.032 634.264 255.75C635.824 254.432 636.604 252.422 636.604 249.718V247.222L632.496 247.378Z" fill="white"/>
<path d="M668.976 236.822H659.876V260.846H655.352V236.822H646.356V232.974H668.976V236.822Z" fill="white"/>
</svg>
