<svg width="730" height="276" viewBox="0 0 730 276" fill="none" xmlns="http://www.w3.org/2000/svg">
<path fill-rule="evenodd" clip-rule="evenodd" d="M311.111 145.989H275.694V57.4469C275.694 55.0163 275.216 52.716 274.262 50.5459C273.394 48.3758 272.135 46.466 270.486 44.8167C268.836 43.1674 266.926 41.9087 264.756 41.0406C262.586 40.0858 260.286 39.6084 257.855 39.6084C255.425 39.6084 253.124 40.0858 250.954 41.0406C248.871 41.9087 247.005 43.1674 245.355 44.8167C243.793 46.466 242.534 48.3758 241.579 50.5459C240.711 52.716 240.277 55.0163 240.277 57.4469V145.989H204.73V57.4469C204.73 55.0163 204.253 52.716 203.298 50.5459C202.43 48.3758 201.171 46.466 199.522 44.8167C197.873 43.1674 195.963 41.9087 193.793 41.0406C191.623 40.0858 189.322 39.6084 186.892 39.6084C184.461 39.6084 182.161 40.0858 179.991 41.0406C177.907 41.9087 176.041 43.1674 174.392 44.8167C172.829 46.466 171.57 48.3758 170.616 50.5459C169.748 52.716 169.314 55.0163 169.314 57.4469V145.989H133.767V6.5354H142.36L151.996 17.2125C156.944 13.0459 162.369 9.83403 168.272 7.57709C174.261 5.23333 180.468 4.06146 186.892 4.06146C193.402 4.06146 199.739 5.27672 205.902 7.70728C212.152 10.1378 217.621 14.3479 222.308 20.3375C224.479 17.3861 226.952 14.8687 229.73 12.7854C232.508 10.7021 235.416 9.00936 238.454 7.70728C241.579 6.40519 244.791 5.49373 248.09 4.9729C251.388 4.36526 254.643 4.06146 257.855 4.06146C265.234 4.06146 272.135 5.45037 278.558 8.22815C285.069 11.0059 290.711 14.8253 295.486 19.6865C300.347 24.4608 304.166 30.1032 306.944 36.6136C309.722 43.124 311.111 50.0684 311.111 57.4469V145.989ZM464.288 75.0251C464.288 85.4418 462.422 95.164 458.689 104.192C454.956 113.133 449.878 120.902 443.454 127.499C437.031 134.01 429.479 139.174 420.798 142.994C412.204 146.727 402.96 148.593 393.064 148.593C383.255 148.593 374.01 146.727 365.329 142.994C356.736 139.174 349.184 134.01 342.673 127.499C336.25 120.902 331.171 113.133 327.439 104.192C323.706 95.164 321.84 85.4418 321.84 75.0251C321.84 64.4348 323.706 54.6257 327.439 45.598C331.171 36.5702 336.25 28.8011 342.673 22.2906C349.184 15.6934 356.736 10.5285 365.329 6.79584C374.01 3.0632 383.255 1.1969 393.064 1.1969C402.96 1.1969 412.204 2.97637 420.798 6.5354C429.479 10.0076 437.031 14.999 443.454 21.5094C449.878 27.933 454.956 35.7021 458.689 44.8167C462.422 53.8445 464.288 63.914 464.288 75.0251ZM428.48 75.0251C428.48 69.2959 427.526 64.131 425.616 59.5303C423.793 54.8428 421.276 50.8497 418.064 47.5511C414.852 44.1657 411.076 41.6049 406.736 39.8688C402.482 38.0459 397.925 37.1344 393.064 37.1344C388.203 37.1344 383.602 38.0459 379.262 39.8688C375.008 41.6049 371.276 44.1657 368.064 47.5511C364.939 50.8497 362.465 54.8428 360.642 59.5303C358.819 64.131 357.908 69.2959 357.908 75.0251C357.908 80.407 358.819 85.3984 360.642 89.9991C362.465 94.5998 364.939 98.5928 368.064 101.978C371.276 105.364 375.008 108.055 379.262 110.051C383.602 111.961 388.203 112.916 393.064 112.916C397.925 112.916 402.482 112.004 406.736 110.181C411.076 108.358 414.852 105.798 418.064 102.499C421.276 99.2005 423.793 95.2074 425.616 90.5199C427.526 85.8324 428.48 80.6675 428.48 75.0251ZM553.012 145.989H471.762V110.572H553.012C555.442 110.572 557.526 109.704 559.262 107.968C560.998 106.232 561.866 104.148 561.866 101.718C561.866 99.2005 560.998 97.5512 559.262 96.7699C557.526 95.9886 555.442 95.598 553.012 95.598H516.033C509.869 95.598 504.097 94.4262 498.715 92.0824C493.333 89.7386 488.646 86.5702 484.652 82.5771C480.659 78.4973 477.491 73.7664 475.147 68.3845C472.89 63.0025 471.762 57.2299 471.762 51.0667C471.762 44.9035 472.89 39.1309 475.147 33.749C477.491 28.367 480.659 23.6795 484.652 19.6865C488.646 15.6934 493.333 12.5684 498.715 10.3115C504.097 7.96771 509.869 6.79584 516.033 6.79584H588.038V42.2125H516.033C513.602 42.2125 511.519 43.0806 509.783 44.8167C508.047 46.5528 507.179 48.6362 507.179 51.0667C507.179 53.5841 508.047 55.7542 509.783 57.5771C511.519 59.3133 513.602 60.1813 516.033 60.1813H553.012C559.088 60.1813 564.817 61.223 570.199 63.3063C575.581 65.3029 580.269 68.1241 584.262 71.7699C588.255 75.4157 591.423 79.7994 593.767 84.921C596.111 90.0425 597.283 95.6414 597.283 101.718C597.283 107.881 596.111 113.654 593.767 119.036C591.423 124.331 588.255 129.018 584.262 133.098C580.269 137.091 575.581 140.26 570.199 142.603C564.817 144.86 559.088 145.989 553.012 145.989ZM685.226 145.989H603.976V110.572H685.226C687.656 110.572 689.74 109.704 691.476 107.968C693.212 106.232 694.08 104.148 694.08 101.718C694.08 99.2005 693.212 97.5512 691.476 96.7699C689.74 95.9886 687.656 95.598 685.226 95.598H648.246C642.083 95.598 636.311 94.4262 630.929 92.0824C625.547 89.7386 620.859 86.5702 616.866 82.5771C612.873 78.4973 609.705 73.7664 607.361 68.3845C605.104 63.0025 603.976 57.2299 603.976 51.0667C603.976 44.9035 605.104 39.1309 607.361 33.749C609.705 28.367 612.873 23.6795 616.866 19.6865C620.859 15.6934 625.547 12.5684 630.929 10.3115C636.311 7.96771 642.083 6.79584 648.246 6.79584H720.252V42.2125H648.246C645.816 42.2125 643.733 43.0806 641.996 44.8167C640.26 46.5528 639.392 48.6362 639.392 51.0667C639.392 53.5841 640.26 55.7542 641.996 57.5771C643.733 59.3133 645.816 60.1813 648.246 60.1813H685.226C691.302 60.1813 697.031 61.223 702.413 63.3063C707.795 65.3029 712.483 68.1241 716.476 71.7699C720.469 75.4157 723.637 79.7994 725.981 84.921C728.325 90.0425 729.497 95.6414 729.497 101.718C729.497 107.881 728.325 113.654 725.981 119.036C723.637 124.331 720.469 129.018 716.476 133.098C712.483 137.091 707.795 140.26 702.413 142.603C697.031 144.86 691.302 145.989 685.226 145.989Z" fill="black"/>
<path fill-rule="evenodd" clip-rule="evenodd" d="M0 6.38428L0.279297 86.5015C0.280797 94.7067 1.843 102.515 4.96875 109.808L4.97266 109.814L4.97461 109.82C8.07432 116.984 12.31 123.311 17.6445 128.714L17.6602 128.73L17.6777 128.748C23.0815 134.082 29.4066 138.318 36.5703 141.417L36.5762 141.421L36.582 141.423C43.879 144.551 51.6928 146.115 59.9024 146.115C68.1076 146.115 75.8876 144.552 83.1231 141.423C90.3528 138.325 96.7176 134.09 102.127 128.75L102.135 128.738L102.145 128.73C107.55 123.325 111.826 116.993 114.93 109.82L114.932 109.814L114.934 109.808C118.058 102.519 119.655 94.7028 119.625 86.4761L119.334 6.38428H84.002L84.2656 86.4878C84.2649 89.8536 83.6217 92.9295 82.332 95.8452L82.3203 95.8726L82.3086 95.8999C81.0511 98.8722 79.3414 101.416 77.1348 103.623C74.9305 105.827 72.3462 107.576 69.293 108.902C66.3721 110.134 63.2816 110.751 59.9043 110.751C56.5319 110.751 53.4033 110.134 50.4082 108.896C47.4325 107.574 44.8789 105.83 42.6719 103.623C40.4615 101.412 38.7174 98.8543 37.3945 95.8726C36.166 92.9588 35.5518 89.8675 35.543 86.48L35.3379 6.38428H0Z" fill="black"/>
<path d="M139.096 176.256H143.464V196.64C143.464 197.507 143.447 198.46 143.412 199.5C143.412 200.506 143.395 201.511 143.36 202.516C143.325 203.522 143.273 204.423 143.204 205.22C143.169 205.983 143.135 206.572 143.1 206.988H143.308L163.744 176.256H168.944V213.384H164.576V193.208C164.576 192.272 164.593 191.267 164.628 190.192C164.663 189.083 164.697 188.026 164.732 187.02C164.801 185.98 164.853 185.062 164.888 184.264C164.923 183.467 164.957 182.878 164.992 182.496H164.784L144.296 213.384H139.096V176.256Z" fill="black"/>
<path d="M182.91 185.512V197.108H198.042V185.512H202.618V213.384H198.042V200.956H182.91V213.384H178.334V185.512H182.91Z" fill="black"/>
<path d="M244.879 185.512L233.387 199.032L245.867 213.384H240.667L228.603 199.24V213.384H224.339V199.24L212.275 213.384H207.075L219.555 199.032L208.063 185.512H213.055L224.339 199.032V185.512H228.603V199.032L239.939 185.512H244.879Z" fill="black"/>
<path d="M260.192 184.992C262.584 184.992 264.629 185.512 266.328 186.552C268.061 187.592 269.378 189.066 270.28 190.972C271.216 192.844 271.684 195.046 271.684 197.576V200.332H252.6C252.669 203.487 253.466 205.896 254.992 207.56C256.552 209.19 258.718 210.004 261.492 210.004C263.26 210.004 264.82 209.848 266.172 209.536C267.558 209.19 268.98 208.704 270.436 208.08V212.084C269.014 212.708 267.61 213.159 266.224 213.436C264.837 213.748 263.19 213.904 261.284 213.904C258.649 213.904 256.309 213.367 254.264 212.292C252.253 211.218 250.676 209.623 249.532 207.508C248.422 205.359 247.868 202.742 247.868 199.656C247.868 196.606 248.37 193.988 249.376 191.804C250.416 189.62 251.854 187.939 253.692 186.76C255.564 185.582 257.73 184.992 260.192 184.992ZM260.14 188.736C257.956 188.736 256.222 189.447 254.94 190.868C253.692 192.255 252.946 194.196 252.704 196.692H266.9C266.9 195.098 266.657 193.711 266.172 192.532C265.686 191.354 264.941 190.435 263.936 189.776C262.965 189.083 261.7 188.736 260.14 188.736Z" fill="black"/>
<path d="M283.355 185.512V197.108H298.487V185.512H303.063V213.384H298.487V200.956H283.355V213.384H278.779V185.512H283.355Z" fill="black"/>
<path d="M322.653 184.992C325.045 184.992 327.09 185.512 328.789 186.552C330.522 187.592 331.839 189.066 332.741 190.972C333.677 192.844 334.145 195.046 334.145 197.576V200.332H315.061C315.13 203.487 315.927 205.896 317.453 207.56C319.013 209.19 321.179 210.004 323.953 210.004C325.721 210.004 327.281 209.848 328.633 209.536C330.019 209.19 331.441 208.704 332.897 208.08V212.084C331.475 212.708 330.071 213.159 328.685 213.436C327.298 213.748 325.651 213.904 323.745 213.904C321.11 213.904 318.77 213.367 316.725 212.292C314.714 211.218 313.137 209.623 311.993 207.508C310.883 205.359 310.329 202.742 310.329 199.656C310.329 196.606 310.831 193.988 311.837 191.804C312.877 189.62 314.315 187.939 316.153 186.76C318.025 185.582 320.191 184.992 322.653 184.992ZM322.601 188.736C320.417 188.736 318.683 189.447 317.401 190.868C316.153 192.255 315.407 194.196 315.165 196.692H329.361C329.361 195.098 329.118 193.711 328.633 192.532C328.147 191.354 327.402 190.435 326.397 189.776C325.426 189.083 324.161 188.736 322.601 188.736Z" fill="black"/>
<path d="M354.5 184.992C357.932 184.992 360.688 186.188 362.768 188.58C364.883 190.972 365.94 194.578 365.94 199.396C365.94 202.551 365.455 205.22 364.484 207.404C363.548 209.554 362.214 211.183 360.48 212.292C358.782 213.367 356.771 213.904 354.448 213.904C353.027 213.904 351.762 213.714 350.652 213.332C349.543 212.951 348.59 212.466 347.792 211.876C347.03 211.252 346.371 210.576 345.816 209.848H345.504C345.574 210.438 345.643 211.183 345.712 212.084C345.782 212.986 345.816 213.766 345.816 214.424V225.864H341.24V185.512H344.984L345.608 189.308H345.816C346.371 188.511 347.03 187.783 347.792 187.124C348.59 186.466 349.526 185.946 350.6 185.564C351.71 185.183 353.01 184.992 354.5 184.992ZM353.668 188.84C351.796 188.84 350.288 189.204 349.144 189.932C348 190.626 347.168 191.683 346.648 193.104C346.128 194.526 345.851 196.328 345.816 198.512V199.396C345.816 201.684 346.059 203.626 346.544 205.22C347.03 206.815 347.844 208.028 348.988 208.86C350.167 209.692 351.762 210.108 353.772 210.108C355.471 210.108 356.858 209.64 357.932 208.704C359.042 207.768 359.856 206.503 360.376 204.908C360.931 203.279 361.208 201.424 361.208 199.344C361.208 196.155 360.584 193.607 359.336 191.7C358.123 189.794 356.234 188.84 353.668 188.84Z" fill="black"/>
<path d="M377.808 185.512V197.108H392.94V185.512H397.516V213.384H392.94V200.956H377.808V213.384H373.232V185.512H377.808Z" fill="black"/>
<path d="M406.342 213.384V185.512H410.918V196.952H418.146C420.572 196.952 422.566 197.247 424.126 197.836C425.686 198.426 426.847 199.31 427.61 200.488C428.372 201.632 428.754 203.088 428.754 204.856C428.754 206.59 428.372 208.098 427.61 209.38C426.882 210.663 425.72 211.651 424.126 212.344C422.566 213.038 420.503 213.384 417.938 213.384H406.342ZM417.522 209.692C419.498 209.692 421.11 209.363 422.358 208.704C423.606 208.011 424.23 206.815 424.23 205.116C424.23 203.418 423.658 202.274 422.514 201.684C421.37 201.06 419.723 200.748 417.574 200.748H410.918V209.692H417.522ZM433.382 213.384V185.512H437.958V213.384H433.382Z" fill="black"/>
<path d="M457.578 184.992C459.97 184.992 462.016 185.512 463.714 186.552C465.448 187.592 466.765 189.066 467.666 190.972C468.602 192.844 469.07 195.046 469.07 197.576V200.332H449.986C450.056 203.487 450.853 205.896 452.378 207.56C453.938 209.19 456.105 210.004 458.878 210.004C460.646 210.004 462.206 209.848 463.558 209.536C464.945 209.19 466.366 208.704 467.822 208.08V212.084C466.401 212.708 464.997 213.159 463.61 213.436C462.224 213.748 460.577 213.904 458.67 213.904C456.036 213.904 453.696 213.367 451.65 212.292C449.64 211.218 448.062 209.623 446.918 207.508C445.809 205.359 445.254 202.742 445.254 199.656C445.254 196.606 445.757 193.988 446.762 191.804C447.802 189.62 449.241 187.939 451.078 186.76C452.95 185.582 455.117 184.992 457.578 184.992ZM457.526 188.736C455.342 188.736 453.609 189.447 452.326 190.868C451.078 192.255 450.333 194.196 450.09 196.692H464.286C464.286 195.098 464.044 193.711 463.558 192.532C463.073 191.354 462.328 190.435 461.322 189.776C460.352 189.083 459.086 188.736 457.526 188.736Z" fill="black"/>
<path d="M502.934 184.992C506.366 184.992 509.122 186.188 511.202 188.58C513.316 190.972 514.374 194.578 514.374 199.396C514.374 202.551 513.888 205.22 512.918 207.404C511.982 209.554 510.647 211.183 508.914 212.292C507.215 213.367 505.205 213.904 502.882 213.904C501.461 213.904 500.195 213.714 499.086 213.332C497.976 212.951 497.023 212.466 496.226 211.876C495.463 211.252 494.804 210.576 494.25 209.848H493.938C494.007 210.438 494.076 211.183 494.146 212.084C494.215 212.986 494.25 213.766 494.25 214.424V225.864H489.674V185.512H493.418L494.042 189.308H494.25C494.804 188.511 495.463 187.783 496.226 187.124C497.023 186.466 497.959 185.946 499.034 185.564C500.143 185.183 501.443 184.992 502.934 184.992ZM502.102 188.84C500.23 188.84 498.722 189.204 497.578 189.932C496.434 190.626 495.602 191.683 495.082 193.104C494.562 194.526 494.284 196.328 494.25 198.512V199.396C494.25 201.684 494.492 203.626 494.978 205.22C495.463 206.815 496.278 208.028 497.422 208.86C498.6 209.692 500.195 210.108 502.206 210.108C503.904 210.108 505.291 209.64 506.366 208.704C507.475 207.768 508.29 206.503 508.81 204.908C509.364 203.279 509.642 201.424 509.642 199.344C509.642 196.155 509.018 193.607 507.77 191.7C506.556 189.794 504.667 188.84 502.102 188.84Z" fill="black"/>
<path d="M532.43 184.992C534.822 184.992 536.867 185.512 538.566 186.552C540.299 187.592 541.617 189.066 542.518 190.972C543.454 192.844 543.922 195.046 543.922 197.576V200.332H524.838C524.907 203.487 525.705 205.896 527.23 207.56C528.79 209.19 530.957 210.004 533.73 210.004C535.498 210.004 537.058 209.848 538.41 209.536C539.797 209.19 541.218 208.704 542.674 208.08V212.084C541.253 212.708 539.849 213.159 538.462 213.436C537.075 213.748 535.429 213.904 533.522 213.904C530.887 213.904 528.547 213.367 526.502 212.292C524.491 211.218 522.914 209.623 521.77 207.508C520.661 205.359 520.106 202.742 520.106 199.656C520.106 196.606 520.609 193.988 521.614 191.804C522.654 189.62 524.093 187.939 525.93 186.76C527.802 185.582 529.969 184.992 532.43 184.992ZM532.378 188.736C530.194 188.736 528.461 189.447 527.178 190.868C525.93 192.255 525.185 194.196 524.942 196.692H539.138C539.138 195.098 538.895 193.711 538.41 192.532C537.925 191.354 537.179 190.435 536.174 189.776C535.203 189.083 533.938 188.736 532.378 188.736Z" fill="black"/>
<path d="M588.822 185.512V213.384H551.018V185.512H555.594V209.536H567.606V185.512H572.182V209.536H584.246V185.512H588.822Z" fill="black"/>
<path d="M608.5 184.992C610.892 184.992 612.938 185.512 614.636 186.552C616.37 187.592 617.687 189.066 618.588 190.972C619.524 192.844 619.992 195.046 619.992 197.576V200.332H600.908C600.978 203.487 601.775 205.896 603.3 207.56C604.86 209.19 607.027 210.004 609.8 210.004C611.568 210.004 613.128 209.848 614.48 209.536C615.867 209.19 617.288 208.704 618.744 208.08V212.084C617.323 212.708 615.919 213.159 614.532 213.436C613.146 213.748 611.499 213.904 609.592 213.904C606.958 213.904 604.618 213.367 602.572 212.292C600.562 211.218 598.984 209.623 597.84 207.508C596.731 205.359 596.176 202.742 596.176 199.656C596.176 196.606 596.679 193.988 597.684 191.804C598.724 189.62 600.163 187.939 602 186.76C603.872 185.582 606.039 184.992 608.5 184.992ZM608.448 188.736C606.264 188.736 604.531 189.447 603.248 190.868C602 192.255 601.255 194.196 601.012 196.692H615.208C615.208 195.098 614.966 193.711 614.48 192.532C613.995 191.354 613.25 190.435 612.244 189.776C611.274 189.083 610.008 188.736 608.448 188.736Z" fill="black"/>
<path d="M631.664 185.512V197.108H646.796V185.512H651.372V213.384H646.796V200.956H631.664V213.384H627.088V185.512H631.664Z" fill="black"/>
<path d="M664.513 202.516C664.513 202.828 664.496 203.279 664.461 203.868C664.461 204.423 664.444 205.03 664.409 205.688C664.375 206.312 664.34 206.919 664.305 207.508C664.271 208.063 664.236 208.514 664.201 208.86L679.125 185.512H684.741V213.384H680.477V196.952C680.477 196.398 680.477 195.67 680.477 194.768C680.512 193.867 680.547 192.983 680.581 192.116C680.616 191.215 680.651 190.539 680.685 190.088L665.865 213.384H660.197V185.512H664.513V202.516Z" fill="black"/>
<path d="M695.327 213.384H690.023L697.979 201.684C696.905 201.407 695.865 200.974 694.859 200.384C693.854 199.76 693.039 198.911 692.415 197.836C691.791 196.727 691.479 195.358 691.479 193.728C691.479 191.059 692.381 189.031 694.183 187.644C695.986 186.223 698.378 185.512 701.359 185.512H713.839V213.384H709.263V202.308H702.503L695.327 213.384ZM695.899 193.78C695.899 195.375 696.489 196.571 697.667 197.368C698.881 198.131 700.562 198.512 702.711 198.512H709.263V189.308H701.827C699.713 189.308 698.187 189.724 697.251 190.556C696.35 191.388 695.899 192.463 695.899 193.78Z" fill="black"/>
<path d="M167.436 260.615H162.756V243.299H143.724V260.615H139.044V223.487H143.724V239.191H162.756V223.487H167.436V260.615Z" fill="black"/>
<path d="M187.519 232.275C190.916 232.275 193.43 233.02 195.059 234.511C196.688 236.002 197.503 238.376 197.503 241.635V260.615H194.175L193.291 256.663H193.083C192.286 257.668 191.454 258.518 190.587 259.211C189.755 259.87 188.784 260.355 187.675 260.667C186.6 260.979 185.283 261.135 183.723 261.135C182.059 261.135 180.551 260.84 179.199 260.251C177.882 259.662 176.842 258.76 176.079 257.547C175.316 256.299 174.935 254.739 174.935 252.867C174.935 250.094 176.027 247.962 178.211 246.471C180.395 244.946 183.758 244.114 188.299 243.975L193.031 243.819V242.155C193.031 239.832 192.528 238.22 191.523 237.319C190.518 236.418 189.096 235.967 187.259 235.967C185.803 235.967 184.416 236.192 183.099 236.643C181.782 237.059 180.551 237.544 179.407 238.099L178.003 234.667C179.216 234.008 180.655 233.454 182.319 233.003C183.983 232.518 185.716 232.275 187.519 232.275ZM188.871 247.147C185.404 247.286 182.995 247.84 181.643 248.811C180.326 249.782 179.667 251.151 179.667 252.919C179.667 254.479 180.135 255.623 181.071 256.351C182.042 257.079 183.272 257.443 184.763 257.443C187.12 257.443 189.079 256.802 190.639 255.519C192.199 254.202 192.979 252.191 192.979 249.487V246.991L188.871 247.147Z" fill="black"/>
<path d="M226.807 232.743V256.767H230.863V270.287H226.443V260.615H207.047V270.287H202.679V256.767H204.915C206.51 254.548 207.827 252.139 208.867 249.539C209.942 246.904 210.739 244.166 211.259 241.323C211.814 238.446 212.109 235.586 212.143 232.743H226.807ZM216.199 236.331C216.061 238.688 215.697 241.132 215.107 243.663C214.518 246.159 213.755 248.551 212.819 250.839C211.918 253.127 210.861 255.103 209.647 256.767H222.387V236.331H216.199Z" fill="black"/>
<path d="M247.09 232.223C249.482 232.223 251.528 232.743 253.226 233.783C254.96 234.823 256.277 236.296 257.178 238.203C258.114 240.075 258.582 242.276 258.582 244.807V247.563H239.498C239.568 250.718 240.365 253.127 241.89 254.791C243.45 256.42 245.617 257.235 248.39 257.235C250.158 257.235 251.718 257.079 253.07 256.767C254.457 256.42 255.878 255.935 257.334 255.311V259.315C255.913 259.939 254.509 260.39 253.122 260.667C251.736 260.979 250.089 261.135 248.182 261.135C245.548 261.135 243.208 260.598 241.162 259.523C239.152 258.448 237.574 256.854 236.43 254.739C235.321 252.59 234.766 249.972 234.766 246.887C234.766 243.836 235.269 241.219 236.274 239.035C237.314 236.851 238.753 235.17 240.59 233.991C242.462 232.812 244.629 232.223 247.09 232.223ZM247.038 235.967C244.854 235.967 243.121 236.678 241.838 238.099C240.59 239.486 239.845 241.427 239.602 243.923H253.798C253.798 242.328 253.556 240.942 253.07 239.763C252.585 238.584 251.84 237.666 250.834 237.007C249.864 236.314 248.598 235.967 247.038 235.967Z" fill="black"/>
<path d="M299.114 232.743L287.622 246.263L300.102 260.615H294.902L282.838 246.471V260.615H278.574V246.471L266.51 260.615H261.31L273.79 246.263L262.298 232.743H267.29L278.574 246.263V232.743H282.838V246.263L294.174 232.743H299.114Z" fill="black"/>
<path d="M309.254 232.743V244.339H324.386V232.743H328.962V260.615H324.386V248.187H309.254V260.615H304.678V232.743H309.254Z" fill="black"/>
<path d="M337.787 260.615V232.743H342.363V244.183H349.591C352.018 244.183 354.011 244.478 355.571 245.067C357.131 245.656 358.292 246.54 359.055 247.719C359.818 248.863 360.199 250.319 360.199 252.087C360.199 253.82 359.818 255.328 359.055 256.611C358.327 257.894 357.166 258.882 355.571 259.575C354.011 260.268 351.948 260.615 349.383 260.615H337.787ZM348.967 256.923C350.943 256.923 352.555 256.594 353.803 255.935C355.051 255.242 355.675 254.046 355.675 252.347C355.675 250.648 355.103 249.504 353.959 248.915C352.815 248.291 351.168 247.979 349.019 247.979H342.363V256.923H348.967ZM364.827 260.615V232.743H369.403V260.615H364.827Z" fill="black"/>
<path d="M400.828 221.199C400.689 222.932 400.256 224.388 399.528 225.567C398.834 226.746 397.794 227.63 396.408 228.219C395.021 228.808 393.218 229.103 391 229.103C388.746 229.103 386.926 228.808 385.54 228.219C384.188 227.63 383.2 226.763 382.576 225.619C381.952 224.44 381.57 222.967 381.432 221.199H385.696C385.869 223.071 386.354 224.336 387.152 224.995C387.984 225.619 389.301 225.931 391.104 225.931C392.698 225.931 393.946 225.602 394.848 224.943C395.784 224.25 396.338 223.002 396.512 221.199H400.828ZM382.576 249.747C382.576 250.059 382.558 250.51 382.524 251.099C382.524 251.654 382.506 252.26 382.472 252.919C382.437 253.543 382.402 254.15 382.368 254.739C382.333 255.294 382.298 255.744 382.264 256.091L397.188 232.743H402.804V260.615H398.54V244.183C398.54 243.628 398.54 242.9 398.54 241.999C398.574 241.098 398.609 240.214 398.644 239.347C398.678 238.446 398.713 237.77 398.748 237.319L383.928 260.615H378.26V232.743H382.576V249.747Z" fill="black"/>
<path d="M438.442 232.223C441.874 232.223 444.63 233.419 446.71 235.811C448.824 238.203 449.882 241.808 449.882 246.627C449.882 249.782 449.396 252.451 448.426 254.635C447.49 256.784 446.155 258.414 444.422 259.523C442.723 260.598 440.712 261.135 438.39 261.135C436.968 261.135 435.703 260.944 434.594 260.563C433.484 260.182 432.531 259.696 431.734 259.107C430.971 258.483 430.312 257.807 429.758 257.079H429.446C429.515 257.668 429.584 258.414 429.654 259.315C429.723 260.216 429.758 260.996 429.758 261.655V273.095H425.182V232.743H428.926L429.55 236.539H429.758C430.312 235.742 430.971 235.014 431.734 234.355C432.531 233.696 433.467 233.176 434.542 232.795C435.651 232.414 436.951 232.223 438.442 232.223ZM437.61 236.071C435.738 236.071 434.23 236.435 433.086 237.163C431.942 237.856 431.11 238.914 430.59 240.335C430.07 241.756 429.792 243.559 429.758 245.743V246.627C429.758 248.915 430 250.856 430.486 252.451C430.971 254.046 431.786 255.259 432.93 256.091C434.108 256.923 435.703 257.339 437.714 257.339C439.412 257.339 440.799 256.871 441.874 255.935C442.983 254.999 443.798 253.734 444.318 252.139C444.872 250.51 445.15 248.655 445.15 246.575C445.15 243.386 444.526 240.838 443.278 238.931C442.064 237.024 440.175 236.071 437.61 236.071Z" fill="black"/>
<path d="M467.938 232.223C470.33 232.223 472.375 232.743 474.074 233.783C475.807 234.823 477.124 236.296 478.026 238.203C478.962 240.075 479.43 242.276 479.43 244.807V247.563H460.346C460.415 250.718 461.212 253.127 462.738 254.791C464.298 256.42 466.464 257.235 469.238 257.235C471.006 257.235 472.566 257.079 473.918 256.767C475.304 256.42 476.726 255.935 478.182 255.311V259.315C476.76 259.939 475.356 260.39 473.97 260.667C472.583 260.979 470.936 261.135 469.03 261.135C466.395 261.135 464.055 260.598 462.01 259.523C459.999 258.448 458.422 256.854 457.278 254.739C456.168 252.59 455.614 249.972 455.614 246.887C455.614 243.836 456.116 241.219 457.122 239.035C458.162 236.851 459.601 235.17 461.438 233.991C463.31 232.812 465.477 232.223 467.938 232.223ZM467.886 235.967C465.702 235.967 463.968 236.678 462.686 238.099C461.438 239.486 460.692 241.427 460.45 243.923H474.646C474.646 242.328 474.403 240.942 473.918 239.763C473.432 238.584 472.687 237.666 471.682 237.007C470.711 236.314 469.446 235.967 467.886 235.967Z" fill="black"/>
<path d="M493.857 232.223C495.972 232.223 497.809 232.518 499.369 233.107C500.929 233.662 502.143 234.494 503.009 235.603C503.876 236.678 504.309 237.995 504.309 239.555C504.309 241.254 503.841 242.606 502.905 243.611C501.969 244.582 500.687 245.292 499.057 245.743V245.951C500.167 246.263 501.189 246.696 502.125 247.251C503.061 247.806 503.807 248.534 504.361 249.435C504.951 250.336 505.245 251.498 505.245 252.919C505.245 254.444 504.812 255.831 503.945 257.079C503.113 258.327 501.813 259.315 500.045 260.043C498.312 260.771 496.076 261.135 493.337 261.135C492.02 261.135 490.755 261.066 489.541 260.927C488.363 260.788 487.288 260.58 486.317 260.303C485.381 260.026 484.549 259.696 483.821 259.315V255.207C485 255.762 486.387 256.264 487.981 256.715C489.611 257.166 491.379 257.391 493.285 257.391C494.672 257.391 495.92 257.235 497.029 256.923C498.173 256.611 499.075 256.126 499.733 255.467C500.392 254.774 500.721 253.838 500.721 252.659C500.721 251.584 500.427 250.718 499.837 250.059C499.248 249.366 498.364 248.846 497.185 248.499C496.041 248.152 494.568 247.979 492.765 247.979H489.021V244.235H492.037C494.429 244.235 496.336 243.923 497.757 243.299C499.213 242.64 499.941 241.531 499.941 239.971C499.941 238.654 499.387 237.666 498.277 237.007C497.203 236.348 495.643 236.019 493.597 236.019C492.072 236.019 490.72 236.175 489.541 236.487C488.397 236.764 487.132 237.198 485.745 237.787L484.133 234.147C485.624 233.488 487.184 233.003 488.813 232.691C490.443 232.379 492.124 232.223 493.857 232.223Z" fill="black"/>
<path d="M507.65 232.743H512.538L518.57 248.603C518.916 249.539 519.228 250.44 519.506 251.307C519.818 252.174 520.095 253.023 520.338 253.855C520.58 254.652 520.771 255.432 520.91 256.195H521.118C521.326 255.328 521.655 254.202 522.106 252.815C522.556 251.394 523.024 249.972 523.51 248.551L529.178 232.743H534.118L522.106 264.463C521.447 266.196 520.667 267.704 519.766 268.987C518.899 270.304 517.824 271.31 516.542 272.003C515.294 272.731 513.768 273.095 511.966 273.095C511.134 273.095 510.406 273.043 509.782 272.939C509.158 272.87 508.62 272.783 508.17 272.679V269.039C508.551 269.108 509.002 269.178 509.522 269.247C510.076 269.316 510.648 269.351 511.238 269.351C512.312 269.351 513.231 269.143 513.994 268.727C514.791 268.346 515.467 267.774 516.022 267.011C516.576 266.283 517.044 265.416 517.426 264.411L518.882 260.719L507.65 232.743Z" fill="black"/>
<path d="M558.726 260.615H554.098V236.539H545.882C545.535 240.942 545.102 244.703 544.582 247.823C544.062 250.908 543.403 253.422 542.606 255.363C541.808 257.304 540.855 258.726 539.746 259.627C538.636 260.528 537.336 260.979 535.846 260.979C535.395 260.979 534.944 260.944 534.494 260.875C534.078 260.84 533.731 260.754 533.454 260.615V257.183C533.662 257.252 533.887 257.304 534.13 257.339C534.372 257.374 534.615 257.391 534.858 257.391C535.62 257.391 536.314 257.079 536.938 256.455C537.562 255.831 538.116 254.878 538.602 253.595C539.122 252.312 539.59 250.7 540.006 248.759C540.422 246.783 540.786 244.46 541.098 241.791C541.41 239.122 541.687 236.106 541.93 232.743H558.726V260.615Z" fill="black"/>
<path d="M580.416 244.183C582.843 244.183 584.854 244.478 586.448 245.067C588.043 245.656 589.239 246.54 590.036 247.719C590.868 248.863 591.284 250.319 591.284 252.087C591.284 253.82 590.886 255.328 590.088 256.611C589.326 257.894 588.13 258.882 586.5 259.575C584.871 260.268 582.774 260.615 580.208 260.615H567.572V232.743H572.148V244.183H580.416ZM586.708 252.347C586.708 250.648 586.102 249.504 584.888 248.915C583.71 248.291 582.046 247.979 579.896 247.979H572.148V256.923H580C581.942 256.923 583.536 256.576 584.784 255.883C586.067 255.19 586.708 254.011 586.708 252.347Z" fill="black"/>
<path d="M615.097 236.591H605.997V260.615H601.473V236.591H592.477V232.743H615.097V236.591Z" fill="black"/>
<path d="M631.144 232.275C634.541 232.275 637.055 233.02 638.684 234.511C640.313 236.002 641.128 238.376 641.128 241.635V260.615H637.8L636.916 256.663H636.708C635.911 257.668 635.079 258.518 634.212 259.211C633.38 259.87 632.409 260.355 631.3 260.667C630.225 260.979 628.908 261.135 627.348 261.135C625.684 261.135 624.176 260.84 622.824 260.251C621.507 259.662 620.467 258.76 619.704 257.547C618.941 256.299 618.56 254.739 618.56 252.867C618.56 250.094 619.652 247.962 621.836 246.471C624.02 244.946 627.383 244.114 631.924 243.975L636.656 243.819V242.155C636.656 239.832 636.153 238.22 635.148 237.319C634.143 236.418 632.721 235.967 630.884 235.967C629.428 235.967 628.041 236.192 626.724 236.643C625.407 237.059 624.176 237.544 623.032 238.099L621.628 234.667C622.841 234.008 624.28 233.454 625.944 233.003C627.608 232.518 629.341 232.275 631.144 232.275ZM632.496 247.147C629.029 247.286 626.62 247.84 625.268 248.811C623.951 249.782 623.292 251.151 623.292 252.919C623.292 254.479 623.76 255.623 624.696 256.351C625.667 257.079 626.897 257.443 628.388 257.443C630.745 257.443 632.704 256.802 634.264 255.519C635.824 254.202 636.604 252.191 636.604 249.487V246.991L632.496 247.147Z" fill="black"/>
<path d="M668.976 236.591H659.876V260.615H655.352V236.591H646.356V232.743H668.976V236.591Z" fill="black"/>
</svg>
