<svg width="120" height="141" viewBox="0 0 120 141" fill="none" xmlns="http://www.w3.org/2000/svg">
<path fill-rule="evenodd" clip-rule="evenodd" d="M0 0.692139L0.279297 80.8093C0.280797 89.0146 1.843 96.8226 4.96875 104.116L4.97266 104.122L4.97461 104.128C8.07432 111.291 12.31 117.618 17.6445 123.022L17.6602 123.038L17.6777 123.055C23.0815 128.39 29.4066 132.626 36.5703 135.725L36.5762 135.729L36.582 135.731C43.879 138.858 51.6928 140.423 59.9024 140.423C68.1076 140.423 75.8876 138.86 83.1231 135.731C90.3528 132.633 96.7176 128.397 102.127 123.057L102.135 123.046L102.145 123.038C107.55 117.633 111.826 111.301 114.93 104.128L114.932 104.122L114.934 104.116C118.058 96.8268 119.655 89.0107 119.625 80.7839L119.334 0.692139H84.002L84.2656 80.7957C84.2649 84.1614 83.6217 87.2373 82.332 90.1531L82.3203 90.1804L82.3086 90.2078C81.0511 93.1801 79.3414 95.7238 77.1348 97.9304C74.9305 100.135 72.3462 101.883 69.293 103.21C66.3721 104.442 63.2816 105.059 59.9043 105.059C56.5319 105.059 53.4033 104.442 50.4082 103.204C47.4325 101.882 44.8789 100.137 42.6719 97.9304C40.4615 95.72 38.7174 93.1621 37.3945 90.1804C36.166 87.2666 35.5518 84.1754 35.543 80.7878L35.3379 0.692139H0Z" fill="white"/>
</svg>
