<?xml version="1.0" encoding="UTF-8"?>
<!-- Ректификационная колонна / Distillation Column -->
<!-- Category: vessels | Tags: P&ID, ISA, нефтехим -->
<!-- Color param: replace #3d5a7a with state color -->
<!-- stopped=#3d5a7a running=#22d3a0 disabled=#2a3a5e alarm=#ff4454 -->
<svg viewBox="0 0 50 120" xmlns="http://www.w3.org/2000/svg">
      <path d="M10,15 Q10,5 25,5 Q40,5 40,15 L40,105 Q40,115 25,115 Q10,115 10,105 Z" fill="none" stroke="#3d5a7a" stroke-width="2"/>
      <line x1="12" y1="30" x2="38" y2="30" stroke="#3d5a7a" stroke-width="1"/>
      <line x1="12" y1="45" x2="38" y2="45" stroke="#3d5a7a" stroke-width="1"/>
      <line x1="12" y1="60" x2="38" y2="60" stroke="#3d5a7a" stroke-width="1"/>
      <line x1="12" y1="75" x2="38" y2="75" stroke="#3d5a7a" stroke-width="1"/>
      <line x1="12" y1="90" x2="38" y2="90" stroke="#3d5a7a" stroke-width="1"/>
      <line x1="0" y1="60" x2="10" y2="60" stroke="#3d5a7a" stroke-width="2"/>
      <line x1="25" y1="0" x2="25" y2="5" stroke="#3d5a7a" stroke-width="2"/>
      <line x1="25" y1="115" x2="25" y2="120" stroke="#3d5a7a" stroke-width="2"/>
      <line x1="40" y1="25" x2="50" y2="25" stroke="#3d5a7a" stroke-width="2"/>
      <line x1="40" y1="95" x2="50" y2="95" stroke="#3d5a7a" stroke-width="2"/>
    </svg>
