<?xml version="1.0" encoding="UTF-8"?>
<!-- Фейсплейт управления / Control Faceplate -->
<!-- Category: widgets | Tags: HP-HMI, управление -->
<!-- Color param: replace #3d5a7a with state color -->
<!-- stopped=#3d5a7a running=#22d3a0 disabled=#2a3a5e alarm=#ff4454 -->
<svg viewBox="0 0 120 90" xmlns="http://www.w3.org/2000/svg"><rect x="2" y="2" width="116" height="86" fill="none" stroke="#3d5a7a" stroke-width="2" rx="4"/><line x1="2" y1="18" x2="118" y2="18" stroke="#3d5a7a" stroke-width="1"/><text x="60" y="14" text-anchor="middle" font-size="9" font-family="Arial" fill="#3d5a7a">FIC-101 AUTO</text><rect x="10" y="25" width="16" height="50" fill="none" stroke="#3d5a7a" stroke-width="1" rx="1"/><rect x="12" y="45" width="12" height="28" fill="#3d5a7a" opacity="0.4" rx="1"/><text x="18" y="82" text-anchor="middle" font-size="7" font-family="Arial" fill="#3d5a7a">PV</text><rect x="32" y="25" width="16" height="50" fill="none" stroke="#3d5a7a" stroke-width="1" rx="1"/><rect x="34" y="50" width="12" height="23" fill="#3d5a7a" opacity="0.3" rx="1"/><text x="40" y="82" text-anchor="middle" font-size="7" font-family="Arial" fill="#3d5a7a">SP</text><rect x="54" y="25" width="16" height="50" fill="none" stroke="#3d5a7a" stroke-width="1" rx="1"/><rect x="56" y="55" width="12" height="18" fill="#3d5a7a" opacity="0.3" rx="1"/><text x="62" y="82" text-anchor="middle" font-size="7" font-family="Arial" fill="#3d5a7a">OP</text><rect x="80" y="28" width="30" height="12" fill="none" stroke="#3d5a7a" stroke-width="1" rx="1"/><text x="95" y="37" text-anchor="middle" font-size="7" font-family="Arial" fill="#3d5a7a">AUTO</text><rect x="80" y="44" width="30" height="12" fill="none" stroke="#3d5a7a" stroke-width="1" rx="1"/><text x="95" y="53" text-anchor="middle" font-size="7" font-family="Arial" fill="#3d5a7a">MAN</text></svg>
